<svg width="230" height="230" viewBox="0 0 230 230" fill="none" xmlns="http://www.w3.org/2000/svg">
<rect width="230" height="230" fill="black"/>
<path fill-rule="evenodd" clip-rule="evenodd" d="M215 115L185.711 185.711L115 215L44.2893 185.711L15 115L44.2893 44.2893L115 15L185.711 44.2893L215 115V115Z" fill="black"/>
<path fill-rule="evenodd" clip-rule="evenodd" d="M215 115L185.711 185.711L115 215L44.2893 185.711L15 115L44.2893 44.2893L115 15L185.711 44.2893L215 115V115Z" fill="white"/>
<path fill-rule="evenodd" clip-rule="evenodd" d="M215 115L185.711 185.711L115 215L44.2893 185.711L15 115L44.2893 44.2893L115 15L185.711 44.2893L215 115V115Z" stroke="white"/>
</svg>
