<svg width="100" height="100" viewBox="0 0 100 100" fill="none" xmlns="http://www.w3.org/2000/svg">
<g filter="url(#filter0_di_411_4718)">
<path d="M38.2409 5.12728C17.4786 5.03104 -2.8123 25.9987 17.7664 30.6672C8.86845 20.6575 27.2038 12.2474 37.8624 17.0917C48.5211 21.9359 42.6095 36.2921 40.5128 38.1654C38.4161 40.0388 34.7028 42.3224 31.9626 43.9826C21.9061 50.0758 -4.9615 66.6938 9.14767 85.2504C23.2569 103.807 52.1508 90.3743 57.1791 87.2584C62.2074 84.1426 66.7587 77.5143 73.9901 75.4181C75.9805 74.8412 81.8513 80.5 85.9039 81.5386C89.9566 82.5773 92.5434 78.4528 93.728 75.8336C96.6304 69.4168 92.9775 68.217 93.5029 69.7403C94.0282 71.2636 91.9268 73.1332 88.9249 74.795C85.9229 76.4567 82.8414 70.5674 79.7644 65.9282C76.6874 61.2891 70.6084 63.9202 57.3998 68.3517C44.1912 72.7831 41.5261 72.445 39.2424 69.6019C37.1063 66.9423 36.6999 61.8436 38.3418 56.0306C39.2273 52.8956 40.6524 49.9806 42.2715 47.3506V47.3493L42.2738 47.3455C42.4436 47.0698 42.6153 46.7974 42.789 46.528C42.7935 46.5211 42.7979 46.5142 42.8026 46.5073C42.9738 46.242 43.1464 45.9801 43.3207 45.7212C43.3292 45.7086 43.3376 45.696 43.3462 45.6834C43.516 45.4316 43.6867 45.1828 43.8587 44.9372C43.8752 44.9135 43.8919 44.8901 43.9085 44.8664C44.0511 44.6635 44.1939 44.4636 44.3375 44.265C44.6764 43.7957 45.0172 43.3398 45.3578 42.8956C45.4003 42.8402 45.4424 42.7838 45.4849 42.7288C45.8701 42.23 46.2543 41.7469 46.6339 41.2821C46.825 41.0482 47.0464 40.7849 47.2932 40.4973C47.54 40.2098 47.8123 39.8976 48.1051 39.5669C48.6908 38.9053 49.3588 38.1668 50.0698 37.3948C50.0698 37.3948 50.0698 37.3938 50.0719 37.3933C50.3597 37.123 50.6507 36.8608 50.9436 36.6037C51.0286 36.529 51.1145 36.4574 51.2 36.3839C51.4088 36.2041 51.6185 36.0269 51.8296 35.8543C51.934 35.7689 52.0388 35.6854 52.1436 35.6019C52.3421 35.4437 52.5413 35.2891 52.7415 35.1375C52.8478 35.057 52.954 34.9767 53.0607 34.8981C53.2764 34.7394 53.4932 34.5859 53.7106 34.4352C53.7986 34.3741 53.8862 34.311 53.9745 34.2513C54.6009 33.8278 55.2337 33.4374 55.8713 33.0853C55.8947 33.0724 55.9181 33.0597 55.9415 33.0469C56.2563 32.8745 56.5722 32.7109 56.889 32.5572C56.9017 32.551 56.9145 32.5446 56.9272 32.5384C57.2535 32.3809 57.5806 32.2338 57.9084 32.0971C57.9253 32.0901 57.942 32.0835 57.9589 32.0765C58.2748 31.9459 58.5911 31.8253 58.9079 31.7148C58.9309 31.7068 58.9539 31.6985 58.9769 31.6906C59.3069 31.5771 59.6371 31.4738 59.9674 31.3832C60.1261 31.3396 60.2848 31.2995 60.4435 31.2614C60.4836 31.2517 60.5236 31.243 60.5637 31.2337C60.6821 31.2063 60.8005 31.1802 60.9189 31.1559C60.9692 31.1455 61.0195 31.1356 61.0699 31.1258C61.1822 31.104 61.2944 31.0838 61.4066 31.0648C61.4553 31.0566 61.5039 31.0481 61.5526 31.0404C61.6757 31.021 61.7988 31.0037 61.9218 30.9877C61.9579 30.983 61.9941 30.9776 62.0302 30.9732C62.1902 30.9537 62.3501 30.9369 62.5099 30.9235C62.5255 30.9221 62.5412 30.9215 62.5569 30.9202C62.6977 30.9089 62.8384 30.9001 62.979 30.8935C63.0279 30.8912 63.0768 30.8901 63.1258 30.8884C63.1958 30.8859 63.2659 30.8823 63.3358 30.8811C63.3814 30.8803 63.4269 30.881 63.4724 30.8807C63.5072 30.8805 63.542 30.8801 63.5767 30.8803C63.7273 30.8807 63.8778 30.8831 64.028 30.8892C64.0377 30.8896 64.0475 30.8904 64.0573 30.8908C64.1975 30.8968 64.3374 30.906 64.4772 30.9171C64.5142 30.92 64.5513 30.9231 64.5883 30.9264C64.7371 30.9396 64.8857 30.9548 65.034 30.974C65.0401 30.9747 65.0463 30.9759 65.0524 30.9767C65.1951 30.9953 65.3376 31.0175 65.4797 31.0417C65.5164 31.0479 65.5531 31.0544 65.5897 31.061C65.7374 31.0876 65.8849 31.1161 66.032 31.1489C67.4977 31.4752 68.8555 32.0923 70.1039 32.9443C71.2712 33.6997 72.3579 34.6129 73.2497 35.5863C75.3988 21.1002 59.0033 5.22353 38.2409 5.12728Z" fill="#25464F"/>
<path d="M38.2409 5.12728C17.4786 5.03104 -2.8123 25.9987 17.7664 30.6672C8.86845 20.6575 27.2038 12.2474 37.8624 17.0917C48.5211 21.9359 42.6095 36.2921 40.5128 38.1654C38.4161 40.0388 34.7028 42.3224 31.9626 43.9826C21.9061 50.0758 -4.9615 66.6938 9.14767 85.2504C23.2569 103.807 52.1508 90.3743 57.1791 87.2584C62.2074 84.1426 66.7587 77.5143 73.9901 75.4181C75.9805 74.8412 81.8513 80.5 85.9039 81.5386C89.9566 82.5773 92.5434 78.4528 93.728 75.8336C96.6304 69.4168 92.9775 68.217 93.5029 69.7403C94.0282 71.2636 91.9268 73.1332 88.9249 74.795C85.9229 76.4567 82.8414 70.5674 79.7644 65.9282C76.6874 61.2891 70.6084 63.9202 57.3998 68.3517C44.1912 72.7831 41.5261 72.445 39.2424 69.6019C37.1063 66.9423 36.6999 61.8436 38.3418 56.0306C39.2273 52.8956 40.6524 49.9806 42.2715 47.3506V47.3493L42.2738 47.3455C42.4436 47.0698 42.6153 46.7974 42.789 46.528C42.7935 46.5211 42.7979 46.5142 42.8026 46.5073C42.9738 46.242 43.1464 45.9801 43.3207 45.7212C43.3292 45.7086 43.3376 45.696 43.3462 45.6834C43.516 45.4316 43.6867 45.1828 43.8587 44.9372C43.8752 44.9135 43.8919 44.8901 43.9085 44.8664C44.0511 44.6635 44.1939 44.4636 44.3375 44.265C44.6764 43.7957 45.0172 43.3398 45.3578 42.8956C45.4003 42.8402 45.4424 42.7838 45.4849 42.7288C45.8701 42.23 46.2543 41.7469 46.6339 41.2821C46.825 41.0482 47.0464 40.7849 47.2932 40.4973C47.54 40.2098 47.8123 39.8976 48.1051 39.5669C48.6908 38.9053 49.3588 38.1668 50.0698 37.3948C50.0698 37.3948 50.0698 37.3938 50.0719 37.3933C50.3597 37.123 50.6507 36.8608 50.9436 36.6037C51.0286 36.529 51.1145 36.4574 51.2 36.3839C51.4088 36.2041 51.6185 36.0269 51.8296 35.8543C51.934 35.7689 52.0388 35.6854 52.1436 35.6019C52.3421 35.4437 52.5413 35.2891 52.7415 35.1375C52.8478 35.057 52.954 34.9767 53.0607 34.8981C53.2764 34.7394 53.4932 34.5859 53.7106 34.4352C53.7986 34.3741 53.8862 34.311 53.9745 34.2513C54.6009 33.8278 55.2337 33.4374 55.8713 33.0853C55.8947 33.0724 55.9181 33.0597 55.9415 33.0469C56.2563 32.8745 56.5722 32.7109 56.889 32.5572C56.9017 32.551 56.9145 32.5446 56.9272 32.5384C57.2535 32.3809 57.5806 32.2338 57.9084 32.0971C57.9253 32.0901 57.942 32.0835 57.9589 32.0765C58.2748 31.9459 58.5911 31.8253 58.9079 31.7148C58.9309 31.7068 58.9539 31.6985 58.9769 31.6906C59.3069 31.5771 59.6371 31.4738 59.9674 31.3832C60.1261 31.3396 60.2848 31.2995 60.4435 31.2614C60.4836 31.2517 60.5236 31.243 60.5637 31.2337C60.6821 31.2063 60.8005 31.1802 60.9189 31.1559C60.9692 31.1455 61.0195 31.1356 61.0699 31.1258C61.1822 31.104 61.2944 31.0838 61.4066 31.0648C61.4553 31.0566 61.5039 31.0481 61.5526 31.0404C61.6757 31.021 61.7988 31.0037 61.9218 30.9877C61.9579 30.983 61.9941 30.9776 62.0302 30.9732C62.1902 30.9537 62.3501 30.9369 62.5099 30.9235C62.5255 30.9221 62.5412 30.9215 62.5569 30.9202C62.6977 30.9089 62.8384 30.9001 62.979 30.8935C63.0279 30.8912 63.0768 30.8901 63.1258 30.8884C63.1958 30.8859 63.2659 30.8823 63.3358 30.8811C63.3814 30.8803 63.4269 30.881 63.4724 30.8807C63.5072 30.8805 63.542 30.8801 63.5767 30.8803C63.7273 30.8807 63.8778 30.8831 64.028 30.8892C64.0377 30.8896 64.0475 30.8904 64.0573 30.8908C64.1975 30.8968 64.3374 30.906 64.4772 30.9171C64.5142 30.92 64.5513 30.9231 64.5883 30.9264C64.7371 30.9396 64.8857 30.9548 65.034 30.974C65.0401 30.9747 65.0463 30.9759 65.0524 30.9767C65.1951 30.9953 65.3376 31.0175 65.4797 31.0417C65.5164 31.0479 65.5531 31.0544 65.5897 31.061C65.7374 31.0876 65.8849 31.1161 66.032 31.1489C67.4977 31.4752 68.8555 32.0923 70.1039 32.9443C71.2712 33.6997 72.3579 34.6129 73.2497 35.5863C75.3988 21.1002 59.0033 5.22353 38.2409 5.12728Z" stroke="#25464F" stroke-width="4.91339" stroke-linecap="round" stroke-linejoin="round"/>
</g>
<g filter="url(#filter1_di_411_4718)">
<path d="M38.2402 5.12704C17.6817 5.03174 -2.4076 25.5862 17.1783 30.5222C15.6065 29.7896 9.71224 26.5425 13.4218 20.4561C16.3538 15.6453 26.4347 8.87103 35.4377 8.96666C44.4407 9.06229 52.3856 14.8055 51.6228 21.6583C50.7543 29.4608 44.7111 35.1626 33.8653 43.547C20.452 53.916 13.4428 72.4571 21.5394 79.2027C28.5915 85.078 43.6839 82.9978 51.7502 77.9059C59.8165 72.814 76.1176 61.2828 79.2965 65.6542C83.9557 72.0612 85.8326 76.9721 88.4137 76.8125C93.3182 76.5093 94.844 72.3594 94.7221 70.8671C94.5914 69.2674 93.7948 69.155 93.7205 69.1476C93.4994 69.1512 93.3715 69.3613 93.5021 69.7401C94.0275 71.2634 91.926 73.133 88.9241 74.7947C85.9221 76.4565 82.8406 70.5672 79.7636 65.928C76.6866 61.2889 70.6076 63.9201 57.399 68.3515C44.1905 72.7829 41.5253 72.4448 39.2417 69.6017C37.1055 66.9421 36.6992 61.8434 38.3411 56.0304C39.2266 52.8954 40.6516 49.9804 42.2707 47.3505V47.3491L42.2731 47.3454C42.4429 47.0696 42.6145 46.7972 42.7883 46.5279C42.7927 46.521 42.7972 46.514 42.8018 46.5071C42.9731 46.2419 43.1457 45.9799 43.32 45.7211C43.3285 45.7085 43.3369 45.6959 43.3455 45.6833C43.5153 45.4315 43.686 45.1826 43.8579 44.9371C43.8744 44.9133 43.8912 44.8899 43.9078 44.8663C44.0504 44.6633 44.1932 44.4634 44.3368 44.2649C44.6757 43.7956 45.0165 43.3396 45.3571 42.8955C45.3996 42.8401 45.4416 42.7837 45.4842 42.7287C45.8693 42.2299 46.2536 41.7468 46.6332 41.282C46.8242 41.0481 47.0456 40.7847 47.2925 40.4971C47.5393 40.2096 47.8115 39.8975 48.1043 39.5667C48.69 38.9051 49.358 38.1667 50.0691 37.3947C50.0691 37.3947 50.0691 37.3937 50.0712 37.3931C50.359 37.1229 50.65 36.8607 50.9428 36.6036C51.0278 36.5289 51.1138 36.4572 51.1992 36.3837C51.4081 36.204 51.6177 36.0268 51.8289 35.8541C51.9332 35.7688 52.0379 35.6853 52.1428 35.6017C52.3412 35.4436 52.5405 35.2889 52.7406 35.1374C52.8469 35.0569 52.9532 34.9766 53.0599 34.898C53.2756 34.7393 53.4924 34.5858 53.7099 34.435C53.7979 34.374 53.8854 34.3109 53.9737 34.2512C54.6001 33.8277 55.2328 33.4373 55.8704 33.0852C55.8938 33.0723 55.9174 33.0596 55.9407 33.0468C56.2556 32.8744 56.5715 32.7108 56.8882 32.5571C56.9009 32.5509 56.9137 32.5444 56.9265 32.5383C57.2527 32.3808 57.5799 32.2337 57.9076 32.097C57.9246 32.09 57.9412 32.0834 57.958 32.0764C58.2739 31.9458 58.5904 31.8252 58.9071 31.7147C58.9301 31.7067 58.953 31.6984 58.976 31.6905C59.306 31.577 59.6363 31.4737 59.9667 31.3831C60.1254 31.3395 60.284 31.2994 60.4426 31.2613C60.4827 31.2516 60.5228 31.2429 60.5629 31.2336C60.6813 31.2062 60.7997 31.1801 60.918 31.1558C60.9684 31.1454 61.0188 31.1355 61.0692 31.1257C61.1814 31.1039 61.2936 31.0837 61.4058 31.0647C61.4544 31.0565 61.5031 31.048 61.5517 31.0403C61.6749 31.0209 61.7979 31.0036 61.9209 30.9876C61.9571 30.9829 61.9933 30.9775 62.0294 30.9731C62.1895 30.9536 62.3494 30.9368 62.5091 30.9233C62.5248 30.922 62.5405 30.9214 62.5561 30.9201C62.697 30.9088 62.8376 30.8999 62.9781 30.8934C63.0271 30.8911 63.076 30.89 63.1249 30.8883C63.1949 30.8859 63.2651 30.8822 63.335 30.881C63.3806 30.8802 63.4262 30.8809 63.4717 30.8806C63.5065 30.8804 63.5412 30.88 63.576 30.8802C63.7266 30.8806 63.877 30.883 64.0272 30.8891C64.0369 30.8895 64.0466 30.8903 64.0564 30.8907C64.1967 30.8967 64.3366 30.9059 64.4764 30.917C64.5134 30.9199 64.5504 30.923 64.5874 30.9263C64.7362 30.9396 64.8849 30.9547 65.0331 30.9739C65.0392 30.9747 65.0454 30.9758 65.0515 30.9765C65.1943 30.9952 65.3367 31.0173 65.4789 31.0415C65.5155 31.0478 65.5522 31.0542 65.5888 31.0608C65.7366 31.0875 65.8841 31.116 66.0311 31.1487C67.4968 31.475 68.8547 32.0921 70.103 32.9441C71.2703 33.6995 72.3571 34.6127 73.2489 35.5861C75.398 21.1001 59.0025 5.22329 38.2402 5.12704Z" fill="#7FCBD8"/>
</g>
<g filter="url(#filter2_d_411_4718)">
<path d="M63.6189 31.4513C59.1309 31.5295 54.4719 34.098 50.355 37.9635C48.9318 39.5086 47.6812 40.9164 46.917 41.8522C45.4612 43.6346 43.9373 45.6734 42.5545 47.9194C40.5871 51.3208 40.0847 53.3913 39.2609 56.8306C39.0309 57.7907 38.9637 58.9493 38.8409 59.8662C38.4444 63.7124 39.0779 66.9358 40.63 68.8682C42.9136 71.7114 46.9941 70.8733 60.2027 66.4419C72.9075 62.1795 76.5735 61.4466 79.7592 65.383C82.2129 52.0592 77.2212 34.1473 66.3151 31.7191C65.4273 31.5215 64.5266 31.4355 63.6189 31.4513ZM74.5377 75.9197C69.6135 77.3471 65.9381 80.8645 62.5025 83.9548C67.7922 83.2766 72.5307 80.6783 75.8342 76.1043C75.3443 75.8502 74.9581 75.8012 74.5377 75.9197Z" fill="#EBEBE3"/>
</g>
<defs>
<filter id="filter0_di_411_4718" x="0.680222" y="0.670166" width="98.6385" height="98.6584" filterUnits="userSpaceOnUse" color-interpolation-filters="sRGB">
<feFlood flood-opacity="0" result="BackgroundImageFix"/>
<feColorMatrix in="SourceAlpha" type="matrix" values="0 0 0 0 0 0 0 0 0 0 0 0 0 0 0 0 0 0 127 0" result="hardAlpha"/>
<feOffset/>
<feGaussianBlur stdDeviation="1"/>
<feComposite in2="hardAlpha" operator="out"/>
<feColorMatrix type="matrix" values="0 0 0 0 1 0 0 0 0 1 0 0 0 0 1 0 0 0 1 0"/>
<feBlend mode="normal" in2="BackgroundImageFix" result="effect1_dropShadow_411_4718"/>
<feBlend mode="normal" in="SourceGraphic" in2="effect1_dropShadow_411_4718" result="shape"/>
<feColorMatrix in="SourceAlpha" type="matrix" values="0 0 0 0 0 0 0 0 0 0 0 0 0 0 0 0 0 0 127 0" result="hardAlpha"/>
<feOffset/>
<feGaussianBlur stdDeviation="1.5"/>
<feComposite in2="hardAlpha" operator="arithmetic" k2="-1" k3="1"/>
<feColorMatrix type="matrix" values="0 0 0 0 1 0 0 0 0 1 0 0 0 0 1 0 0 0 1 0"/>
<feBlend mode="normal" in2="shape" result="effect2_innerShadow_411_4718"/>
</filter>
<filter id="filter1_di_411_4718" x="7.19199" y="3.12671" width="89.5368" height="81.6357" filterUnits="userSpaceOnUse" color-interpolation-filters="sRGB">
<feFlood flood-opacity="0" result="BackgroundImageFix"/>
<feColorMatrix in="SourceAlpha" type="matrix" values="0 0 0 0 0 0 0 0 0 0 0 0 0 0 0 0 0 0 127 0" result="hardAlpha"/>
<feOffset/>
<feGaussianBlur stdDeviation="1"/>
<feComposite in2="hardAlpha" operator="out"/>
<feColorMatrix type="matrix" values="0 0 0 0 1 0 0 0 0 1 0 0 0 0 1 0 0 0 1 0"/>
<feBlend mode="normal" in2="BackgroundImageFix" result="effect1_dropShadow_411_4718"/>
<feBlend mode="normal" in="SourceGraphic" in2="effect1_dropShadow_411_4718" result="shape"/>
<feColorMatrix in="SourceAlpha" type="matrix" values="0 0 0 0 0 0 0 0 0 0 0 0 0 0 0 0 0 0 127 0" result="hardAlpha"/>
<feOffset/>
<feGaussianBlur stdDeviation="1.5"/>
<feComposite in2="hardAlpha" operator="arithmetic" k2="-1" k3="1"/>
<feColorMatrix type="matrix" values="0 0 0 0 1 0 0 0 0 1 0 0 0 0 1 0 0 0 1 0"/>
<feBlend mode="normal" in2="shape" result="effect2_innerShadow_411_4718"/>
</filter>
<filter id="filter2_d_411_4718" x="36.7256" y="29.4495" width="45.6471" height="56.5054" filterUnits="userSpaceOnUse" color-interpolation-filters="sRGB">
<feFlood flood-opacity="0" result="BackgroundImageFix"/>
<feColorMatrix in="SourceAlpha" type="matrix" values="0 0 0 0 0 0 0 0 0 0 0 0 0 0 0 0 0 0 127 0" result="hardAlpha"/>
<feOffset/>
<feGaussianBlur stdDeviation="1"/>
<feComposite in2="hardAlpha" operator="out"/>
<feColorMatrix type="matrix" values="0 0 0 0 1 0 0 0 0 1 0 0 0 0 1 0 0 0 1 0"/>
<feBlend mode="normal" in2="BackgroundImageFix" result="effect1_dropShadow_411_4718"/>
<feBlend mode="normal" in="SourceGraphic" in2="effect1_dropShadow_411_4718" result="shape"/>
</filter>
</defs>
</svg>
