<svg width="93" height="93" viewBox="0 0 93 93" fill="none" xmlns="http://www.w3.org/2000/svg">
<rect width="3.72" height="3.72" transform="matrix(-1 0 0 1 93 0)" fill="#F2F2F2"/>
<rect width="3.72" height="3.72" transform="matrix(-1 0 0 1 89.28 0)" fill="#F2F2F2"/>
<rect width="3.72" height="3.72" transform="matrix(-1 0 0 1 85.5601 0)" fill="#F2F2F2"/>
<rect width="3.72" height="3.72" transform="matrix(-1 0 0 1 81.8401 0)" fill="#F2F2F2"/>
<rect width="3.72" height="3.72" transform="matrix(-1 0 0 1 78.1201 0)" fill="#F2F2F2"/>
<rect width="3.72" height="3.72" transform="matrix(-1 0 0 1 74.4 0)" fill="#F2F2F2"/>
<rect width="3.72" height="3.72" transform="matrix(-1 0 0 1 70.6801 0)" fill="#F2F2F2"/>
<rect width="3.72" height="3.72" transform="matrix(-1 0 0 1 63.2399 0)" fill="#F2F2F2"/>
<rect width="3.72" height="3.72" transform="matrix(-1 0 0 1 55.7999 0)" fill="#F2F2F2"/>
<rect width="3.72" height="3.72" transform="matrix(-1 0 0 1 48.36 0)" fill="#F2F2F2"/>
<rect width="3.72" height="3.72" transform="matrix(-1 0 0 1 44.64 0)" fill="#F2F2F2"/>
<rect width="3.72" height="3.72" transform="matrix(-1 0 0 1 33.4801 0)" fill="#F2F2F2"/>
<rect width="3.72" height="3.72" transform="matrix(-1 0 0 1 26.04 0)" fill="#F2F2F2"/>
<rect width="3.72" height="3.72" transform="matrix(-1 0 0 1 22.3199 0)" fill="#F2F2F2"/>
<rect width="3.72" height="3.72" transform="matrix(-1 0 0 1 18.6 0)" fill="#F2F2F2"/>
<rect width="3.72" height="3.72" transform="matrix(-1 0 0 1 14.8799 0)" fill="#F2F2F2"/>
<rect width="3.72" height="3.72" transform="matrix(-1 0 0 1 11.1599 0)" fill="#F2F2F2"/>
<rect width="3.72" height="3.72" transform="matrix(-1 0 0 1 7.43994 0)" fill="#F2F2F2"/>
<rect width="3.72" height="3.72" transform="matrix(-1 0 0 1 3.71997 0)" fill="#F2F2F2"/>
<rect width="3.72" height="3.72" transform="matrix(-1 0 0 1 93 3.71997)" fill="#F2F2F2"/>
<rect width="3.72" height="3.72" transform="matrix(-1 0 0 1 70.6801 3.71997)" fill="#F2F2F2"/>
<rect width="3.72" height="3.72" transform="matrix(-1 0 0 1 59.5199 3.71997)" fill="#F2F2F2"/>
<rect width="3.72" height="3.72" transform="matrix(-1 0 0 1 55.7999 3.71997)" fill="#F2F2F2"/>
<rect width="3.72" height="3.72" transform="matrix(-1 0 0 1 52.08 3.71997)" fill="#F2F2F2"/>
<rect width="3.72" height="3.72" transform="matrix(-1 0 0 1 48.36 3.71997)" fill="#F2F2F2"/>
<rect width="3.72" height="3.72" transform="matrix(-1 0 0 1 33.4801 3.71997)" fill="#F2F2F2"/>
<rect width="3.72" height="3.72" transform="matrix(-1 0 0 1 26.04 3.71997)" fill="#F2F2F2"/>
<rect width="3.72" height="3.72" transform="matrix(-1 0 0 1 3.71997 3.71997)" fill="#F2F2F2"/>
<rect width="3.72" height="3.72" transform="matrix(-1 0 0 1 93 7.43994)" fill="#F2F2F2"/>
<rect width="3.72" height="3.72" transform="matrix(-1 0 0 1 85.5601 7.43994)" fill="#F2F2F2"/>
<rect width="3.72" height="3.72" transform="matrix(-1 0 0 1 81.8401 7.43994)" fill="#F2F2F2"/>
<rect width="3.72" height="3.72" transform="matrix(-1 0 0 1 78.1201 7.43994)" fill="#F2F2F2"/>
<rect width="3.72" height="3.72" transform="matrix(-1 0 0 1 70.6801 7.43994)" fill="#F2F2F2"/>
<rect width="3.72" height="3.72" transform="matrix(-1 0 0 1 63.2399 7.43994)" fill="#F2F2F2"/>
<rect width="3.72" height="3.72" transform="matrix(-1 0 0 1 59.5199 7.43994)" fill="#F2F2F2"/>
<rect width="3.72" height="3.72" transform="matrix(-1 0 0 1 55.7999 7.43994)" fill="#F2F2F2"/>
<rect width="3.72" height="3.72" transform="matrix(-1 0 0 1 44.64 7.43994)" fill="#F2F2F2"/>
<rect width="3.72" height="3.72" transform="matrix(-1 0 0 1 40.92 7.43994)" fill="#F2F2F2"/>
<rect width="3.72" height="3.72" transform="matrix(-1 0 0 1 37.2001 7.43994)" fill="#F2F2F2"/>
<rect width="3.72" height="3.72" transform="matrix(-1 0 0 1 26.04 7.43994)" fill="#F2F2F2"/>
<rect width="3.72" height="3.72" transform="matrix(-1 0 0 1 18.6 7.43994)" fill="#F2F2F2"/>
<rect width="3.72" height="3.72" transform="matrix(-1 0 0 1 14.8799 7.43994)" fill="#F2F2F2"/>
<rect width="3.72" height="3.72" transform="matrix(-1 0 0 1 11.1599 7.43994)" fill="#F2F2F2"/>
<rect width="3.72" height="3.72" transform="matrix(-1 0 0 1 3.71997 7.43994)" fill="#F2F2F2"/>
<rect width="3.72" height="3.72" transform="matrix(-1 0 0 1 93 11.1599)" fill="#F2F2F2"/>
<rect width="3.72" height="3.72" transform="matrix(-1 0 0 1 85.5601 11.1599)" fill="#F2F2F2"/>
<rect width="3.72" height="3.72" transform="matrix(-1 0 0 1 81.8401 11.1599)" fill="#F2F2F2"/>
<rect width="3.72" height="3.72" transform="matrix(-1 0 0 1 78.1201 11.1599)" fill="#F2F2F2"/>
<rect width="3.72" height="3.72" transform="matrix(-1 0 0 1 70.6801 11.1599)" fill="#F2F2F2"/>
<rect width="3.72" height="3.72" transform="matrix(-1 0 0 1 63.2399 11.1599)" fill="#F2F2F2"/>
<rect width="3.72" height="3.72" transform="matrix(-1 0 0 1 59.5199 11.1599)" fill="#F2F2F2"/>
<rect width="3.72" height="3.72" transform="matrix(-1 0 0 1 55.7999 11.1599)" fill="#F2F2F2"/>
<rect width="3.72" height="3.72" transform="matrix(-1 0 0 1 48.36 11.1599)" fill="#F2F2F2"/>
<rect width="3.72" height="3.72" transform="matrix(-1 0 0 1 44.64 11.1599)" fill="#F2F2F2"/>
<rect width="3.72" height="3.72" transform="matrix(-1 0 0 1 26.04 11.1599)" fill="#F2F2F2"/>
<rect width="3.72" height="3.72" transform="matrix(-1 0 0 1 18.6 11.1599)" fill="#F2F2F2"/>
<rect width="3.72" height="3.72" transform="matrix(-1 0 0 1 14.8799 11.1599)" fill="#F2F2F2"/>
<rect width="3.72" height="3.72" transform="matrix(-1 0 0 1 11.1599 11.1599)" fill="#F2F2F2"/>
<rect width="3.72" height="3.72" transform="matrix(-1 0 0 1 3.71997 11.1599)" fill="#F2F2F2"/>
<rect width="3.72" height="3.72" transform="matrix(-1 0 0 1 93 14.88)" fill="#F2F2F2"/>
<rect width="3.72" height="3.72" transform="matrix(-1 0 0 1 85.5601 14.88)" fill="#F2F2F2"/>
<rect width="3.72" height="3.72" transform="matrix(-1 0 0 1 81.8401 14.88)" fill="#F2F2F2"/>
<rect width="3.72" height="3.72" transform="matrix(-1 0 0 1 78.1201 14.88)" fill="#F2F2F2"/>
<rect width="3.72" height="3.72" transform="matrix(-1 0 0 1 70.6801 14.88)" fill="#F2F2F2"/>
<rect width="3.72" height="3.72" transform="matrix(-1 0 0 1 63.2399 14.88)" fill="#F2F2F2"/>
<rect width="3.72" height="3.72" transform="matrix(-1 0 0 1 52.08 14.88)" fill="#F2F2F2"/>
<rect width="3.72" height="3.72" transform="matrix(-1 0 0 1 48.36 14.88)" fill="#F2F2F2"/>
<rect width="3.72" height="3.72" transform="matrix(-1 0 0 1 44.64 14.88)" fill="#F2F2F2"/>
<rect width="3.72" height="3.72" transform="matrix(-1 0 0 1 40.92 14.88)" fill="#F2F2F2"/>
<rect width="3.72" height="3.72" transform="matrix(-1 0 0 1 37.2001 14.88)" fill="#F2F2F2"/>
<rect width="3.72" height="3.72" transform="matrix(-1 0 0 1 33.4801 14.88)" fill="#F2F2F2"/>
<rect width="3.72" height="3.72" transform="matrix(-1 0 0 1 26.04 14.88)" fill="#F2F2F2"/>
<rect width="3.72" height="3.72" transform="matrix(-1 0 0 1 18.6 14.88)" fill="#F2F2F2"/>
<rect width="3.72" height="3.72" transform="matrix(-1 0 0 1 14.8799 14.88)" fill="#F2F2F2"/>
<rect width="3.72" height="3.72" transform="matrix(-1 0 0 1 11.1599 14.88)" fill="#F2F2F2"/>
<rect width="3.72" height="3.72" transform="matrix(-1 0 0 1 3.71997 14.88)" fill="#F2F2F2"/>
<rect width="3.72" height="3.72" transform="matrix(-1 0 0 1 93 18.6)" fill="#F2F2F2"/>
<rect width="3.72" height="3.72" transform="matrix(-1 0 0 1 70.6801 18.6)" fill="#F2F2F2"/>
<rect width="3.72" height="3.72" transform="matrix(-1 0 0 1 55.7999 18.6)" fill="#F2F2F2"/>
<rect width="3.72" height="3.72" transform="matrix(-1 0 0 1 52.08 18.6)" fill="#F2F2F2"/>
<rect width="3.72" height="3.72" transform="matrix(-1 0 0 1 40.92 18.6)" fill="#F2F2F2"/>
<rect width="3.72" height="3.72" transform="matrix(-1 0 0 1 26.04 18.6)" fill="#F2F2F2"/>
<rect width="3.72" height="3.72" transform="matrix(-1 0 0 1 3.71997 18.6)" fill="#F2F2F2"/>
<rect width="3.72" height="3.72" transform="matrix(-1 0 0 1 93 22.3199)" fill="#F2F2F2"/>
<rect width="3.72" height="3.72" transform="matrix(-1 0 0 1 89.28 22.3199)" fill="#F2F2F2"/>
<rect width="3.72" height="3.72" transform="matrix(-1 0 0 1 85.5601 22.3199)" fill="#F2F2F2"/>
<rect width="3.72" height="3.72" transform="matrix(-1 0 0 1 81.8401 22.3199)" fill="#F2F2F2"/>
<rect width="3.72" height="3.72" transform="matrix(-1 0 0 1 78.1201 22.3199)" fill="#F2F2F2"/>
<rect width="3.72" height="3.72" transform="matrix(-1 0 0 1 74.4 22.3199)" fill="#F2F2F2"/>
<rect width="3.72" height="3.72" transform="matrix(-1 0 0 1 70.6801 22.3199)" fill="#F2F2F2"/>
<rect width="3.72" height="3.72" transform="matrix(-1 0 0 1 63.2399 22.3199)" fill="#F2F2F2"/>
<rect width="3.72" height="3.72" transform="matrix(-1 0 0 1 55.7999 22.3199)" fill="#F2F2F2"/>
<rect width="3.72" height="3.72" transform="matrix(-1 0 0 1 48.36 22.3199)" fill="#F2F2F2"/>
<rect width="3.72" height="3.72" transform="matrix(-1 0 0 1 40.92 22.3199)" fill="#F2F2F2"/>
<rect width="3.72" height="3.72" transform="matrix(-1 0 0 1 33.4801 22.3199)" fill="#F2F2F2"/>
<rect width="3.72" height="3.72" transform="matrix(-1 0 0 1 26.04 22.3199)" fill="#F2F2F2"/>
<rect width="3.72" height="3.72" transform="matrix(-1 0 0 1 22.3199 22.3199)" fill="#F2F2F2"/>
<rect width="3.72" height="3.72" transform="matrix(-1 0 0 1 18.6 22.3199)" fill="#F2F2F2"/>
<rect width="3.72" height="3.72" transform="matrix(-1 0 0 1 14.8799 22.3199)" fill="#F2F2F2"/>
<rect width="3.72" height="3.72" transform="matrix(-1 0 0 1 11.1599 22.3199)" fill="#F2F2F2"/>
<rect width="3.72" height="3.72" transform="matrix(-1 0 0 1 7.43994 22.3199)" fill="#F2F2F2"/>
<rect width="3.72" height="3.72" transform="matrix(-1 0 0 1 3.71997 22.3199)" fill="#F2F2F2"/>
<rect width="3.72" height="3.72" transform="matrix(-1 0 0 1 55.7999 26.04)" fill="#F2F2F2"/>
<rect width="3.72" height="3.72" transform="matrix(-1 0 0 1 48.36 26.04)" fill="#F2F2F2"/>
<rect width="3.72" height="3.72" transform="matrix(-1 0 0 1 37.2001 26.04)" fill="#F2F2F2"/>
<rect width="3.72" height="3.72" transform="matrix(-1 0 0 1 93 29.76)" fill="#F2F2F2"/>
<rect width="3.72" height="3.72" transform="matrix(-1 0 0 1 89.28 29.76)" fill="#F2F2F2"/>
<rect width="3.72" height="3.72" transform="matrix(-1 0 0 1 85.5601 29.76)" fill="#F2F2F2"/>
<rect width="3.72" height="3.72" transform="matrix(-1 0 0 1 81.8401 29.76)" fill="#F2F2F2"/>
<rect width="3.72" height="3.72" transform="matrix(-1 0 0 1 70.6801 29.76)" fill="#F2F2F2"/>
<rect width="3.72" height="3.72" transform="matrix(-1 0 0 1 63.2399 29.76)" fill="#F2F2F2"/>
<rect width="3.72" height="3.72" transform="matrix(-1 0 0 1 55.7999 29.76)" fill="#F2F2F2"/>
<rect width="3.72" height="3.72" transform="matrix(-1 0 0 1 52.08 29.76)" fill="#F2F2F2"/>
<rect width="3.72" height="3.72" transform="matrix(-1 0 0 1 44.64 29.76)" fill="#F2F2F2"/>
<rect width="3.72" height="3.72" transform="matrix(-1 0 0 1 40.92 29.76)" fill="#F2F2F2"/>
<rect width="3.72" height="3.72" transform="matrix(-1 0 0 1 33.4801 29.76)" fill="#F2F2F2"/>
<rect width="3.72" height="3.72" transform="matrix(-1 0 0 1 29.7601 29.76)" fill="#F2F2F2"/>
<rect width="3.72" height="3.72" transform="matrix(-1 0 0 1 18.6 29.76)" fill="#F2F2F2"/>
<rect width="3.72" height="3.72" transform="matrix(-1 0 0 1 14.8799 29.76)" fill="#F2F2F2"/>
<rect width="3.72" height="3.72" transform="matrix(-1 0 0 1 11.1599 29.76)" fill="#F2F2F2"/>
<rect width="3.72" height="3.72" transform="matrix(-1 0 0 1 3.71997 29.76)" fill="#F2F2F2"/>
<rect width="3.72" height="3.72" transform="matrix(-1 0 0 1 85.5601 33.48)" fill="#F2F2F2"/>
<rect width="3.72" height="3.72" transform="matrix(-1 0 0 1 81.8401 33.48)" fill="#F2F2F2"/>
<rect width="3.72" height="3.72" transform="matrix(-1 0 0 1 74.4 33.48)" fill="#F2F2F2"/>
<rect width="3.72" height="3.72" transform="matrix(-1 0 0 1 66.96 33.48)" fill="#F2F2F2"/>
<rect width="3.72" height="3.72" transform="matrix(-1 0 0 1 55.7999 33.48)" fill="#F2F2F2"/>
<rect width="3.72" height="3.72" transform="matrix(-1 0 0 1 48.36 33.48)" fill="#F2F2F2"/>
<rect width="3.72" height="3.72" transform="matrix(-1 0 0 1 40.92 33.48)" fill="#F2F2F2"/>
<rect width="3.72" height="3.72" transform="matrix(-1 0 0 1 33.4801 33.48)" fill="#F2F2F2"/>
<rect width="3.72" height="3.72" transform="matrix(-1 0 0 1 22.3199 33.48)" fill="#F2F2F2"/>
<rect width="3.72" height="3.72" transform="matrix(-1 0 0 1 7.43994 33.48)" fill="#F2F2F2"/>
<rect width="3.72" height="3.72" transform="matrix(-1 0 0 1 89.28 37.2001)" fill="#F2F2F2"/>
<rect width="3.72" height="3.72" transform="matrix(-1 0 0 1 85.5601 37.2001)" fill="#F2F2F2"/>
<rect width="3.72" height="3.72" transform="matrix(-1 0 0 1 74.4 37.2001)" fill="#F2F2F2"/>
<rect width="3.72" height="3.72" transform="matrix(-1 0 0 1 70.6801 37.2001)" fill="#F2F2F2"/>
<rect width="3.72" height="3.72" transform="matrix(-1 0 0 1 66.96 37.2001)" fill="#F2F2F2"/>
<rect width="3.72" height="3.72" transform="matrix(-1 0 0 1 63.2399 37.2001)" fill="#F2F2F2"/>
<rect width="3.72" height="3.72" transform="matrix(-1 0 0 1 59.5199 37.2001)" fill="#F2F2F2"/>
<rect width="3.72" height="3.72" transform="matrix(-1 0 0 1 55.7999 37.2001)" fill="#F2F2F2"/>
<rect width="3.72" height="3.72" transform="matrix(-1 0 0 1 52.08 37.2001)" fill="#F2F2F2"/>
<rect width="3.72" height="3.72" transform="matrix(-1 0 0 1 44.64 37.2001)" fill="#F2F2F2"/>
<rect width="3.72" height="3.72" transform="matrix(-1 0 0 1 40.92 37.2001)" fill="#F2F2F2"/>
<rect width="3.72" height="3.72" transform="matrix(-1 0 0 1 29.7601 37.2001)" fill="#F2F2F2"/>
<rect width="3.72" height="3.72" transform="matrix(-1 0 0 1 26.04 37.2001)" fill="#F2F2F2"/>
<rect width="3.72" height="3.72" transform="matrix(-1 0 0 1 22.3199 37.2001)" fill="#F2F2F2"/>
<rect width="3.72" height="3.72" transform="matrix(-1 0 0 1 93 40.92)" fill="#F2F2F2"/>
<rect width="3.72" height="3.72" transform="matrix(-1 0 0 1 89.28 40.92)" fill="#F2F2F2"/>
<rect width="3.72" height="3.72" transform="matrix(-1 0 0 1 85.5601 40.92)" fill="#F2F2F2"/>
<rect width="3.72" height="3.72" transform="matrix(-1 0 0 1 81.8401 40.92)" fill="#F2F2F2"/>
<rect width="3.72" height="3.72" transform="matrix(-1 0 0 1 74.4 40.92)" fill="#F2F2F2"/>
<rect width="3.72" height="3.72" transform="matrix(-1 0 0 1 66.96 40.92)" fill="#F2F2F2"/>
<rect width="3.72" height="3.72" transform="matrix(-1 0 0 1 59.5199 40.92)" fill="#F2F2F2"/>
<rect width="3.72" height="3.72" transform="matrix(-1 0 0 1 55.7999 40.92)" fill="#F2F2F2"/>
<rect width="3.72" height="3.72" transform="matrix(-1 0 0 1 52.08 40.92)" fill="#F2F2F2"/>
<rect width="3.72" height="3.72" transform="matrix(-1 0 0 1 48.36 40.92)" fill="#F2F2F2"/>
<rect width="3.72" height="3.72" transform="matrix(-1 0 0 1 44.64 40.92)" fill="#F2F2F2"/>
<rect width="3.72" height="3.72" transform="matrix(-1 0 0 1 37.2001 40.92)" fill="#F2F2F2"/>
<rect width="3.72" height="3.72" transform="matrix(-1 0 0 1 29.7601 40.92)" fill="#F2F2F2"/>
<rect width="3.72" height="3.72" transform="matrix(-1 0 0 1 14.8799 40.92)" fill="#F2F2F2"/>
<rect width="3.72" height="3.72" transform="matrix(-1 0 0 1 11.1599 40.92)" fill="#F2F2F2"/>
<rect width="3.72" height="3.72" transform="matrix(-1 0 0 1 93 44.64)" fill="#F2F2F2"/>
<rect width="3.72" height="3.72" transform="matrix(-1 0 0 1 89.28 44.64)" fill="#F2F2F2"/>
<rect width="3.72" height="3.72" transform="matrix(-1 0 0 1 81.8401 44.64)" fill="#F2F2F2"/>
<rect width="3.72" height="3.72" transform="matrix(-1 0 0 1 70.6801 44.64)" fill="#F2F2F2"/>
<rect width="3.72" height="3.72" transform="matrix(-1 0 0 1 66.96 44.64)" fill="#F2F2F2"/>
<rect width="3.72" height="3.72" transform="matrix(-1 0 0 1 59.5199 44.64)" fill="#F2F2F2"/>
<rect width="3.72" height="3.72" transform="matrix(-1 0 0 1 55.7999 44.64)" fill="#F2F2F2"/>
<rect width="3.72" height="3.72" transform="matrix(-1 0 0 1 52.08 44.64)" fill="#F2F2F2"/>
<rect width="3.72" height="3.72" transform="matrix(-1 0 0 1 48.36 44.64)" fill="#F2F2F2"/>
<rect width="3.72" height="3.72" transform="matrix(-1 0 0 1 44.64 44.64)" fill="#F2F2F2"/>
<rect width="3.72" height="3.72" transform="matrix(-1 0 0 1 40.92 44.64)" fill="#F2F2F2"/>
<rect width="3.72" height="3.72" transform="matrix(-1 0 0 1 29.7601 44.64)" fill="#F2F2F2"/>
<rect width="3.72" height="3.72" transform="matrix(-1 0 0 1 26.04 44.64)" fill="#F2F2F2"/>
<rect width="3.72" height="3.72" transform="matrix(-1 0 0 1 18.6 44.64)" fill="#F2F2F2"/>
<rect width="3.72" height="3.72" transform="matrix(-1 0 0 1 11.1599 44.64)" fill="#F2F2F2"/>
<rect width="3.72" height="3.72" transform="matrix(-1 0 0 1 7.43994 44.64)" fill="#F2F2F2"/>
<rect width="3.72" height="3.72" transform="matrix(-1 0 0 1 3.71997 44.64)" fill="#F2F2F2"/>
<rect width="3.72" height="3.72" transform="matrix(-1 0 0 1 85.5601 48.36)" fill="#F2F2F2"/>
<rect width="3.72" height="3.72" transform="matrix(-1 0 0 1 81.8401 48.36)" fill="#F2F2F2"/>
<rect width="3.72" height="3.72" transform="matrix(-1 0 0 1 74.4 48.36)" fill="#F2F2F2"/>
<rect width="3.72" height="3.72" transform="matrix(-1 0 0 1 59.5199 48.36)" fill="#F2F2F2"/>
<rect width="3.72" height="3.72" transform="matrix(-1 0 0 1 48.36 48.36)" fill="#F2F2F2"/>
<rect width="3.72" height="3.72" transform="matrix(-1 0 0 1 44.64 48.36)" fill="#F2F2F2"/>
<rect width="3.72" height="3.72" transform="matrix(-1 0 0 1 40.92 48.36)" fill="#F2F2F2"/>
<rect width="3.72" height="3.72" transform="matrix(-1 0 0 1 37.2001 48.36)" fill="#F2F2F2"/>
<rect width="3.72" height="3.72" transform="matrix(-1 0 0 1 26.04 48.36)" fill="#F2F2F2"/>
<rect width="3.72" height="3.72" transform="matrix(-1 0 0 1 22.3199 48.36)" fill="#F2F2F2"/>
<rect width="3.72" height="3.72" transform="matrix(-1 0 0 1 18.6 48.36)" fill="#F2F2F2"/>
<rect width="3.72" height="3.72" transform="matrix(-1 0 0 1 3.71997 48.36)" fill="#F2F2F2"/>
<rect width="3.72" height="3.72" transform="matrix(-1 0 0 1 89.28 52.08)" fill="#F2F2F2"/>
<rect width="3.72" height="3.72" transform="matrix(-1 0 0 1 81.8401 52.08)" fill="#F2F2F2"/>
<rect width="3.72" height="3.72" transform="matrix(-1 0 0 1 74.4 52.08)" fill="#F2F2F2"/>
<rect width="3.72" height="3.72" transform="matrix(-1 0 0 1 70.6801 52.08)" fill="#F2F2F2"/>
<rect width="3.72" height="3.72" transform="matrix(-1 0 0 1 63.2399 52.08)" fill="#F2F2F2"/>
<rect width="3.72" height="3.72" transform="matrix(-1 0 0 1 55.7999 52.08)" fill="#F2F2F2"/>
<rect width="3.72" height="3.72" transform="matrix(-1 0 0 1 40.92 52.08)" fill="#F2F2F2"/>
<rect width="3.72" height="3.72" transform="matrix(-1 0 0 1 33.4801 52.08)" fill="#F2F2F2"/>
<rect width="3.72" height="3.72" transform="matrix(-1 0 0 1 29.7601 52.08)" fill="#F2F2F2"/>
<rect width="3.72" height="3.72" transform="matrix(-1 0 0 1 18.6 52.08)" fill="#F2F2F2"/>
<rect width="3.72" height="3.72" transform="matrix(-1 0 0 1 11.1599 52.08)" fill="#F2F2F2"/>
<rect width="3.72" height="3.72" transform="matrix(-1 0 0 1 7.43994 52.08)" fill="#F2F2F2"/>
<rect width="3.72" height="3.72" transform="matrix(-1 0 0 1 93 55.7999)" fill="#F2F2F2"/>
<rect width="3.72" height="3.72" transform="matrix(-1 0 0 1 85.5601 55.7999)" fill="#F2F2F2"/>
<rect width="3.72" height="3.72" transform="matrix(-1 0 0 1 78.1201 55.7999)" fill="#F2F2F2"/>
<rect width="3.72" height="3.72" transform="matrix(-1 0 0 1 63.2399 55.7999)" fill="#F2F2F2"/>
<rect width="3.72" height="3.72" transform="matrix(-1 0 0 1 59.5199 55.7999)" fill="#F2F2F2"/>
<rect width="3.72" height="3.72" transform="matrix(-1 0 0 1 55.7999 55.7999)" fill="#F2F2F2"/>
<rect width="3.72" height="3.72" transform="matrix(-1 0 0 1 52.08 55.7999)" fill="#F2F2F2"/>
<rect width="3.72" height="3.72" transform="matrix(-1 0 0 1 40.92 55.7999)" fill="#F2F2F2"/>
<rect width="3.72" height="3.72" transform="matrix(-1 0 0 1 26.04 55.7999)" fill="#F2F2F2"/>
<rect width="3.72" height="3.72" transform="matrix(-1 0 0 1 22.3199 55.7999)" fill="#F2F2F2"/>
<rect width="3.72" height="3.72" transform="matrix(-1 0 0 1 18.6 55.7999)" fill="#F2F2F2"/>
<rect width="3.72" height="3.72" transform="matrix(-1 0 0 1 3.71997 55.7999)" fill="#F2F2F2"/>
<rect width="3.72" height="3.72" transform="matrix(-1 0 0 1 81.8401 59.52)" fill="#F2F2F2"/>
<rect width="3.72" height="3.72" transform="matrix(-1 0 0 1 78.1201 59.52)" fill="#F2F2F2"/>
<rect width="3.72" height="3.72" transform="matrix(-1 0 0 1 74.4 59.52)" fill="#F2F2F2"/>
<rect width="3.72" height="3.72" transform="matrix(-1 0 0 1 70.6801 59.52)" fill="#F2F2F2"/>
<rect width="3.72" height="3.72" transform="matrix(-1 0 0 1 63.2399 59.52)" fill="#F2F2F2"/>
<rect width="3.72" height="3.72" transform="matrix(-1 0 0 1 59.5199 59.52)" fill="#F2F2F2"/>
<rect width="3.72" height="3.72" transform="matrix(-1 0 0 1 44.64 59.52)" fill="#F2F2F2"/>
<rect width="3.72" height="3.72" transform="matrix(-1 0 0 1 33.4801 59.52)" fill="#F2F2F2"/>
<rect width="3.72" height="3.72" transform="matrix(-1 0 0 1 29.7601 59.52)" fill="#F2F2F2"/>
<rect width="3.72" height="3.72" transform="matrix(-1 0 0 1 26.04 59.52)" fill="#F2F2F2"/>
<rect width="3.72" height="3.72" transform="matrix(-1 0 0 1 22.3199 59.52)" fill="#F2F2F2"/>
<rect width="3.72" height="3.72" transform="matrix(-1 0 0 1 18.6 59.52)" fill="#F2F2F2"/>
<rect width="3.72" height="3.72" transform="matrix(-1 0 0 1 14.8799 59.52)" fill="#F2F2F2"/>
<rect width="3.72" height="3.72" transform="matrix(-1 0 0 1 11.1599 59.52)" fill="#F2F2F2"/>
<rect width="3.72" height="3.72" transform="matrix(-1 0 0 1 7.43994 59.52)" fill="#F2F2F2"/>
<rect width="3.72" height="3.72" transform="matrix(-1 0 0 1 3.71997 59.52)" fill="#F2F2F2"/>
<rect width="3.72" height="3.72" transform="matrix(-1 0 0 1 63.2399 63.24)" fill="#F2F2F2"/>
<rect width="3.72" height="3.72" transform="matrix(-1 0 0 1 55.7999 63.24)" fill="#F2F2F2"/>
<rect width="3.72" height="3.72" transform="matrix(-1 0 0 1 52.08 63.24)" fill="#F2F2F2"/>
<rect width="3.72" height="3.72" transform="matrix(-1 0 0 1 48.36 63.24)" fill="#F2F2F2"/>
<rect width="3.72" height="3.72" transform="matrix(-1 0 0 1 33.4801 63.24)" fill="#F2F2F2"/>
<rect width="3.72" height="3.72" transform="matrix(-1 0 0 1 18.6 63.24)" fill="#F2F2F2"/>
<rect width="3.72" height="3.72" transform="matrix(-1 0 0 1 11.1599 63.24)" fill="#F2F2F2"/>
<rect width="3.72" height="3.72" transform="matrix(-1 0 0 1 3.71997 63.24)" fill="#F2F2F2"/>
<rect width="3.72" height="3.72" transform="matrix(-1 0 0 1 93 66.96)" fill="#F2F2F2"/>
<rect width="3.72" height="3.72" transform="matrix(-1 0 0 1 89.28 66.96)" fill="#F2F2F2"/>
<rect width="3.72" height="3.72" transform="matrix(-1 0 0 1 85.5601 66.96)" fill="#F2F2F2"/>
<rect width="3.72" height="3.72" transform="matrix(-1 0 0 1 81.8401 66.96)" fill="#F2F2F2"/>
<rect width="3.72" height="3.72" transform="matrix(-1 0 0 1 78.1201 66.96)" fill="#F2F2F2"/>
<rect width="3.72" height="3.72" transform="matrix(-1 0 0 1 74.4 66.96)" fill="#F2F2F2"/>
<rect width="3.72" height="3.72" transform="matrix(-1 0 0 1 70.6801 66.96)" fill="#F2F2F2"/>
<rect width="3.72" height="3.72" transform="matrix(-1 0 0 1 44.64 66.96)" fill="#F2F2F2"/>
<rect width="3.72" height="3.72" transform="matrix(-1 0 0 1 33.4801 66.96)" fill="#F2F2F2"/>
<rect width="3.72" height="3.72" transform="matrix(-1 0 0 1 26.04 66.96)" fill="#F2F2F2"/>
<rect width="3.72" height="3.72" transform="matrix(-1 0 0 1 18.6 66.96)" fill="#F2F2F2"/>
<rect width="3.72" height="3.72" transform="matrix(-1 0 0 1 11.1599 66.96)" fill="#F2F2F2"/>
<rect width="3.72" height="3.72" transform="matrix(-1 0 0 1 7.43994 66.96)" fill="#F2F2F2"/>
<rect width="3.72" height="3.72" transform="matrix(-1 0 0 1 3.71997 66.96)" fill="#F2F2F2"/>
<rect width="3.72" height="3.72" transform="matrix(-1 0 0 1 93 70.6799)" fill="#F2F2F2"/>
<rect width="3.72" height="3.72" transform="matrix(-1 0 0 1 70.6801 70.6799)" fill="#F2F2F2"/>
<rect width="3.72" height="3.72" transform="matrix(-1 0 0 1 59.5199 70.6799)" fill="#F2F2F2"/>
<rect width="3.72" height="3.72" transform="matrix(-1 0 0 1 55.7999 70.6799)" fill="#F2F2F2"/>
<rect width="3.72" height="3.72" transform="matrix(-1 0 0 1 52.08 70.6799)" fill="#F2F2F2"/>
<rect width="3.72" height="3.72" transform="matrix(-1 0 0 1 37.2001 70.6799)" fill="#F2F2F2"/>
<rect width="3.72" height="3.72" transform="matrix(-1 0 0 1 33.4801 70.6799)" fill="#F2F2F2"/>
<rect width="3.72" height="3.72" transform="matrix(-1 0 0 1 18.6 70.6799)" fill="#F2F2F2"/>
<rect width="3.72" height="3.72" transform="matrix(-1 0 0 1 3.71997 70.6799)" fill="#F2F2F2"/>
<rect width="3.72" height="3.72" transform="matrix(-1 0 0 1 93 74.4)" fill="#F2F2F2"/>
<rect width="3.72" height="3.72" transform="matrix(-1 0 0 1 85.5601 74.4)" fill="#F2F2F2"/>
<rect width="3.72" height="3.72" transform="matrix(-1 0 0 1 81.8401 74.4)" fill="#F2F2F2"/>
<rect width="3.72" height="3.72" transform="matrix(-1 0 0 1 78.1201 74.4)" fill="#F2F2F2"/>
<rect width="3.72" height="3.72" transform="matrix(-1 0 0 1 70.6801 74.4)" fill="#F2F2F2"/>
<rect width="3.72" height="3.72" transform="matrix(-1 0 0 1 59.5199 74.4)" fill="#F2F2F2"/>
<rect width="3.72" height="3.72" transform="matrix(-1 0 0 1 40.92 74.4)" fill="#F2F2F2"/>
<rect width="3.72" height="3.72" transform="matrix(-1 0 0 1 33.4801 74.4)" fill="#F2F2F2"/>
<rect width="3.72" height="3.72" transform="matrix(-1 0 0 1 29.7601 74.4)" fill="#F2F2F2"/>
<rect width="3.72" height="3.72" transform="matrix(-1 0 0 1 26.04 74.4)" fill="#F2F2F2"/>
<rect width="3.72" height="3.72" transform="matrix(-1 0 0 1 22.3199 74.4)" fill="#F2F2F2"/>
<rect width="3.72" height="3.72" transform="matrix(-1 0 0 1 18.6 74.4)" fill="#F2F2F2"/>
<rect width="3.72" height="3.72" transform="matrix(-1 0 0 1 14.8799 74.4)" fill="#F2F2F2"/>
<rect width="3.72" height="3.72" transform="matrix(-1 0 0 1 3.71997 74.4)" fill="#F2F2F2"/>
<rect width="3.72" height="3.72" transform="matrix(-1 0 0 1 93 78.12)" fill="#F2F2F2"/>
<rect width="3.72" height="3.72" transform="matrix(-1 0 0 1 85.5601 78.12)" fill="#F2F2F2"/>
<rect width="3.72" height="3.72" transform="matrix(-1 0 0 1 81.8401 78.12)" fill="#F2F2F2"/>
<rect width="3.72" height="3.72" transform="matrix(-1 0 0 1 78.1201 78.12)" fill="#F2F2F2"/>
<rect width="3.72" height="3.72" transform="matrix(-1 0 0 1 70.6801 78.12)" fill="#F2F2F2"/>
<rect width="3.72" height="3.72" transform="matrix(-1 0 0 1 63.2399 78.12)" fill="#F2F2F2"/>
<rect width="3.72" height="3.72" transform="matrix(-1 0 0 1 59.5199 78.12)" fill="#F2F2F2"/>
<rect width="3.72" height="3.72" transform="matrix(-1 0 0 1 52.08 78.12)" fill="#F2F2F2"/>
<rect width="3.72" height="3.72" transform="matrix(-1 0 0 1 40.92 78.12)" fill="#F2F2F2"/>
<rect width="3.72" height="3.72" transform="matrix(-1 0 0 1 29.7601 78.12)" fill="#F2F2F2"/>
<rect width="3.72" height="3.72" transform="matrix(-1 0 0 1 26.04 78.12)" fill="#F2F2F2"/>
<rect width="3.72" height="3.72" transform="matrix(-1 0 0 1 18.6 78.12)" fill="#F2F2F2"/>
<rect width="3.72" height="3.72" transform="matrix(-1 0 0 1 14.8799 78.12)" fill="#F2F2F2"/>
<rect width="3.72" height="3.72" transform="matrix(-1 0 0 1 11.1599 78.12)" fill="#F2F2F2"/>
<rect width="3.72" height="3.72" transform="matrix(-1 0 0 1 7.43994 78.12)" fill="#F2F2F2"/>
<rect width="3.72" height="3.72" transform="matrix(-1 0 0 1 3.71997 78.12)" fill="#F2F2F2"/>
<rect width="3.72" height="3.72" transform="matrix(-1 0 0 1 93 81.8401)" fill="#F2F2F2"/>
<rect width="3.72" height="3.72" transform="matrix(-1 0 0 1 85.5601 81.8401)" fill="#F2F2F2"/>
<rect width="3.72" height="3.72" transform="matrix(-1 0 0 1 81.8401 81.8401)" fill="#F2F2F2"/>
<rect width="3.72" height="3.72" transform="matrix(-1 0 0 1 78.1201 81.8401)" fill="#F2F2F2"/>
<rect width="3.72" height="3.72" transform="matrix(-1 0 0 1 70.6801 81.8401)" fill="#F2F2F2"/>
<rect width="3.72" height="3.72" transform="matrix(-1 0 0 1 63.2399 81.8401)" fill="#F2F2F2"/>
<rect width="3.72" height="3.72" transform="matrix(-1 0 0 1 55.7999 81.8401)" fill="#F2F2F2"/>
<rect width="3.72" height="3.72" transform="matrix(-1 0 0 1 52.08 81.8401)" fill="#F2F2F2"/>
<rect width="3.72" height="3.72" transform="matrix(-1 0 0 1 48.36 81.8401)" fill="#F2F2F2"/>
<rect width="3.72" height="3.72" transform="matrix(-1 0 0 1 37.2001 81.8401)" fill="#F2F2F2"/>
<rect width="3.72" height="3.72" transform="matrix(-1 0 0 1 29.7601 81.8401)" fill="#F2F2F2"/>
<rect width="3.72" height="3.72" transform="matrix(-1 0 0 1 26.04 81.8401)" fill="#F2F2F2"/>
<rect width="3.72" height="3.72" transform="matrix(-1 0 0 1 18.6 81.8401)" fill="#F2F2F2"/>
<rect width="3.72" height="3.72" transform="matrix(-1 0 0 1 11.1599 81.8401)" fill="#F2F2F2"/>
<rect width="3.72" height="3.72" transform="matrix(-1 0 0 1 7.43994 81.8401)" fill="#F2F2F2"/>
<rect width="3.72" height="3.72" transform="matrix(-1 0 0 1 93 85.5601)" fill="#F2F2F2"/>
<rect width="3.72" height="3.72" transform="matrix(-1 0 0 1 70.6801 85.5601)" fill="#F2F2F2"/>
<rect width="3.72" height="3.72" transform="matrix(-1 0 0 1 63.2399 85.5601)" fill="#F2F2F2"/>
<rect width="3.72" height="3.72" transform="matrix(-1 0 0 1 59.5199 85.5601)" fill="#F2F2F2"/>
<rect width="3.72" height="3.72" transform="matrix(-1 0 0 1 52.08 85.5601)" fill="#F2F2F2"/>
<rect width="3.72" height="3.72" transform="matrix(-1 0 0 1 48.36 85.5601)" fill="#F2F2F2"/>
<rect width="3.72" height="3.72" transform="matrix(-1 0 0 1 44.64 85.5601)" fill="#F2F2F2"/>
<rect width="3.72" height="3.72" transform="matrix(-1 0 0 1 40.92 85.5601)" fill="#F2F2F2"/>
<rect width="3.72" height="3.72" transform="matrix(-1 0 0 1 37.2001 85.5601)" fill="#F2F2F2"/>
<rect width="3.72" height="3.72" transform="matrix(-1 0 0 1 26.04 85.5601)" fill="#F2F2F2"/>
<rect width="3.72" height="3.72" transform="matrix(-1 0 0 1 18.6 85.5601)" fill="#F2F2F2"/>
<rect width="3.72" height="3.72" transform="matrix(-1 0 0 1 11.1599 85.5601)" fill="#F2F2F2"/>
<rect width="3.72" height="3.72" transform="matrix(-1 0 0 1 93 89.28)" fill="#F2F2F2"/>
<rect width="3.72" height="3.72" transform="matrix(-1 0 0 1 89.28 89.28)" fill="#F2F2F2"/>
<rect width="3.72" height="3.72" transform="matrix(-1 0 0 1 85.5601 89.28)" fill="#F2F2F2"/>
<rect width="3.72" height="3.72" transform="matrix(-1 0 0 1 81.8401 89.28)" fill="#F2F2F2"/>
<rect width="3.72" height="3.72" transform="matrix(-1 0 0 1 78.1201 89.28)" fill="#F2F2F2"/>
<rect width="3.72" height="3.72" transform="matrix(-1 0 0 1 74.4 89.28)" fill="#F2F2F2"/>
<rect width="3.72" height="3.72" transform="matrix(-1 0 0 1 70.6801 89.28)" fill="#F2F2F2"/>
<rect width="3.72" height="3.72" transform="matrix(-1 0 0 1 63.2399 89.28)" fill="#F2F2F2"/>
<rect width="3.72" height="3.72" transform="matrix(-1 0 0 1 55.7999 89.28)" fill="#F2F2F2"/>
<rect width="3.72" height="3.72" transform="matrix(-1 0 0 1 48.36 89.28)" fill="#F2F2F2"/>
<rect width="3.72" height="3.72" transform="matrix(-1 0 0 1 44.64 89.28)" fill="#F2F2F2"/>
<rect width="3.72" height="3.72" transform="matrix(-1 0 0 1 40.92 89.28)" fill="#F2F2F2"/>
<rect width="3.72" height="3.72" transform="matrix(-1 0 0 1 26.04 89.28)" fill="#F2F2F2"/>
<rect width="3.72" height="3.72" transform="matrix(-1 0 0 1 22.3199 89.28)" fill="#F2F2F2"/>
<rect width="3.72" height="3.72" transform="matrix(-1 0 0 1 18.6 89.28)" fill="#F2F2F2"/>
<rect width="3.72" height="3.72" transform="matrix(-1 0 0 1 14.8799 89.28)" fill="#F2F2F2"/>
<rect width="3.72" height="3.72" transform="matrix(-1 0 0 1 11.1599 89.28)" fill="#F2F2F2"/>
<rect width="3.72" height="3.72" transform="matrix(-1 0 0 1 7.43994 89.28)" fill="#F2F2F2"/>
<rect width="3.72" height="3.72" transform="matrix(-1 0 0 1 3.71997 89.28)" fill="#F2F2F2"/>
</svg>
