<svg width="93" height="91" viewBox="0 0 93 91" fill="none" xmlns="http://www.w3.org/2000/svg">
<rect width="3.2069" height="3.13793" fill="#000000"/>
<rect x="3.20691" width="3.2069" height="3.13793" fill="#000000"/>
<rect x="6.41382" width="3.2069" height="3.13793" fill="#000000"/>
<rect x="9.62073" width="3.2069" height="3.13793" fill="#000000"/>
<rect x="12.8276" width="3.2069" height="3.13793" fill="#000000"/>
<rect x="16.0344" width="3.2069" height="3.13793" fill="#000000"/>
<rect x="19.2413" width="3.2069" height="3.13793" fill="#000000"/>
<rect x="28.8621" width="3.2069" height="3.13793" fill="#000000"/>
<rect x="32.069" width="3.2069" height="3.13793" fill="#000000"/>
<rect x="35.2759" width="3.2069" height="3.13793" fill="#000000"/>
<rect x="44.8966" width="3.2069" height="3.13793" fill="#000000"/>
<rect x="57.7241" width="3.2069" height="3.13793" fill="#000000"/>
<rect x="70.5518" width="3.2069" height="3.13793" fill="#000000"/>
<rect x="73.7587" width="3.2069" height="3.13793" fill="#000000"/>
<rect x="76.9656" width="3.2069" height="3.13793" fill="#000000"/>
<rect x="80.1724" width="3.2069" height="3.13793" fill="#000000"/>
<rect x="83.3793" width="3.2069" height="3.13793" fill="#000000"/>
<rect x="86.5862" width="3.2069" height="3.13793" fill="#000000"/>
<rect x="89.7931" width="3.2069" height="3.13793" fill="#000000"/>
<rect y="3.13794" width="3.2069" height="3.13793" fill="#000000"/>
<rect x="19.2413" y="3.13794" width="3.2069" height="3.13793" fill="#000000"/>
<rect x="35.2759" y="3.13794" width="3.2069" height="3.13793" fill="#000000"/>
<rect x="38.4828" y="3.13794" width="3.2069" height="3.13793" fill="#000000"/>
<rect x="44.8966" y="3.13794" width="3.2069" height="3.13793" fill="#000000"/>
<rect x="51.3103" y="3.13794" width="3.2069" height="3.13793" fill="#000000"/>
<rect x="54.5172" y="3.13794" width="3.2069" height="3.13793" fill="#000000"/>
<rect x="64.1379" y="3.13794" width="3.2069" height="3.13793" fill="#000000"/>
<rect x="70.5518" y="3.13794" width="3.2069" height="3.13793" fill="#000000"/>
<rect x="89.7931" y="3.13794" width="3.2069" height="3.13793" fill="#000000"/>
<rect y="6.27588" width="3.2069" height="3.13793" fill="#000000"/>
<rect x="6.41382" y="6.27588" width="3.2069" height="3.13793" fill="#000000"/>
<rect x="9.62073" y="6.27588" width="3.2069" height="3.13793" fill="#000000"/>
<rect x="12.8276" y="6.27588" width="3.2069" height="3.13793" fill="#000000"/>
<rect x="19.2413" y="6.27588" width="3.2069" height="3.13793" fill="#000000"/>
<rect x="28.8621" y="6.27588" width="3.2069" height="3.13793" fill="#000000"/>
<rect x="32.069" y="6.27588" width="3.2069" height="3.13793" fill="#000000"/>
<rect x="35.2759" y="6.27588" width="3.2069" height="3.13793" fill="#000000"/>
<rect x="44.8966" y="6.27588" width="3.2069" height="3.13793" fill="#000000"/>
<rect x="48.1034" y="6.27588" width="3.2069" height="3.13793" fill="#000000"/>
<rect x="60.931" y="6.27588" width="3.2069" height="3.13793" fill="#000000"/>
<rect x="70.5518" y="6.27588" width="3.2069" height="3.13793" fill="#000000"/>
<rect x="76.9656" y="6.27588" width="3.2069" height="3.13793" fill="#000000"/>
<rect x="80.1724" y="6.27588" width="3.2069" height="3.13793" fill="#000000"/>
<rect x="83.3793" y="6.27588" width="3.2069" height="3.13793" fill="#000000"/>
<rect x="89.7931" y="6.27588" width="3.2069" height="3.13793" fill="#000000"/>
<rect y="9.41382" width="3.2069" height="3.13793" fill="#000000"/>
<rect x="6.41382" y="9.41382" width="3.2069" height="3.13793" fill="#000000"/>
<rect x="9.62073" y="9.41382" width="3.2069" height="3.13793" fill="#000000"/>
<rect x="12.8276" y="9.41382" width="3.2069" height="3.13793" fill="#000000"/>
<rect x="19.2413" y="9.41382" width="3.2069" height="3.13793" fill="#000000"/>
<rect x="25.6552" y="9.41382" width="3.2069" height="3.13793" fill="#000000"/>
<rect x="32.069" y="9.41382" width="3.2069" height="3.13793" fill="#000000"/>
<rect x="35.2759" y="9.41382" width="3.2069" height="3.13793" fill="#000000"/>
<rect x="41.6897" y="9.41382" width="3.2069" height="3.13793" fill="#000000"/>
<rect x="51.3103" y="9.41382" width="3.2069" height="3.13793" fill="#000000"/>
<rect x="54.5172" y="9.41382" width="3.2069" height="3.13793" fill="#000000"/>
<rect x="64.1379" y="9.41382" width="3.2069" height="3.13793" fill="#000000"/>
<rect x="70.5518" y="9.41382" width="3.2069" height="3.13793" fill="#000000"/>
<rect x="76.9656" y="9.41382" width="3.2069" height="3.13793" fill="#000000"/>
<rect x="80.1724" y="9.41382" width="3.2069" height="3.13793" fill="#000000"/>
<rect x="83.3793" y="9.41382" width="3.2069" height="3.13793" fill="#000000"/>
<rect x="89.7931" y="9.41382" width="3.2069" height="3.13793" fill="#000000"/>
<rect y="12.5516" width="3.2069" height="3.13793" fill="#000000"/>
<rect x="6.41382" y="12.5516" width="3.2069" height="3.13793" fill="#000000"/>
<rect x="9.62073" y="12.5516" width="3.2069" height="3.13793" fill="#000000"/>
<rect x="12.8276" y="12.5516" width="3.2069" height="3.13793" fill="#000000"/>
<rect x="19.2413" y="12.5516" width="3.2069" height="3.13793" fill="#000000"/>
<rect x="25.6552" y="12.5516" width="3.2069" height="3.13793" fill="#000000"/>
<rect x="32.069" y="12.5516" width="3.2069" height="3.13793" fill="#000000"/>
<rect x="38.4828" y="12.5516" width="3.2069" height="3.13793" fill="#000000"/>
<rect x="44.8966" y="12.5516" width="3.2069" height="3.13793" fill="#000000"/>
<rect x="51.3103" y="12.5516" width="3.2069" height="3.13793" fill="#000000"/>
<rect x="54.5172" y="12.5516" width="3.2069" height="3.13793" fill="#000000"/>
<rect x="57.7241" y="12.5516" width="3.2069" height="3.13793" fill="#000000"/>
<rect x="60.931" y="12.5516" width="3.2069" height="3.13793" fill="#000000"/>
<rect x="64.1379" y="12.5516" width="3.2069" height="3.13793" fill="#000000"/>
<rect x="70.5518" y="12.5516" width="3.2069" height="3.13793" fill="#000000"/>
<rect x="76.9656" y="12.5516" width="3.2069" height="3.13793" fill="#000000"/>
<rect x="80.1724" y="12.5516" width="3.2069" height="3.13793" fill="#000000"/>
<rect x="83.3793" y="12.5516" width="3.2069" height="3.13793" fill="#000000"/>
<rect x="89.7931" y="12.5516" width="3.2069" height="3.13793" fill="#000000"/>
<rect y="15.6897" width="3.2069" height="3.13793" fill="#000000"/>
<rect x="19.2413" y="15.6897" width="3.2069" height="3.13793" fill="#000000"/>
<rect x="28.8621" y="15.6897" width="3.2069" height="3.13793" fill="#000000"/>
<rect x="32.069" y="15.6897" width="3.2069" height="3.13793" fill="#000000"/>
<rect x="41.6897" y="15.6897" width="3.2069" height="3.13793" fill="#000000"/>
<rect x="51.3103" y="15.6897" width="3.2069" height="3.13793" fill="#000000"/>
<rect x="70.5518" y="15.6897" width="3.2069" height="3.13793" fill="#000000"/>
<rect x="89.7931" y="15.6897" width="3.2069" height="3.13793" fill="#000000"/>
<rect y="18.8276" width="3.2069" height="3.13793" fill="#000000"/>
<rect x="3.20691" y="18.8276" width="3.2069" height="3.13793" fill="#000000"/>
<rect x="6.41382" y="18.8276" width="3.2069" height="3.13793" fill="#000000"/>
<rect x="9.62073" y="18.8276" width="3.2069" height="3.13793" fill="#000000"/>
<rect x="12.8276" y="18.8276" width="3.2069" height="3.13793" fill="#000000"/>
<rect x="16.0344" y="18.8276" width="3.2069" height="3.13793" fill="#000000"/>
<rect x="19.2413" y="18.8276" width="3.2069" height="3.13793" fill="#000000"/>
<rect x="25.6552" y="18.8276" width="3.2069" height="3.13793" fill="#000000"/>
<rect x="32.069" y="18.8276" width="3.2069" height="3.13793" fill="#000000"/>
<rect x="38.4828" y="18.8276" width="3.2069" height="3.13793" fill="#000000"/>
<rect x="44.8966" y="18.8276" width="3.2069" height="3.13793" fill="#000000"/>
<rect x="51.3103" y="18.8276" width="3.2069" height="3.13793" fill="#000000"/>
<rect x="57.7241" y="18.8276" width="3.2069" height="3.13793" fill="#000000"/>
<rect x="64.1379" y="18.8276" width="3.2069" height="3.13793" fill="#000000"/>
<rect x="70.5518" y="18.8276" width="3.2069" height="3.13793" fill="#000000"/>
<rect x="73.7587" y="18.8276" width="3.2069" height="3.13793" fill="#000000"/>
<rect x="76.9656" y="18.8276" width="3.2069" height="3.13793" fill="#000000"/>
<rect x="80.1724" y="18.8276" width="3.2069" height="3.13793" fill="#000000"/>
<rect x="83.3793" y="18.8276" width="3.2069" height="3.13793" fill="#000000"/>
<rect x="86.5862" y="18.8276" width="3.2069" height="3.13793" fill="#000000"/>
<rect x="89.7931" y="18.8276" width="3.2069" height="3.13793" fill="#000000"/>
<rect x="28.8621" y="21.9656" width="3.2069" height="3.13793" fill="#000000"/>
<rect x="38.4828" y="21.9656" width="3.2069" height="3.13793" fill="#000000"/>
<rect x="44.8966" y="21.9656" width="3.2069" height="3.13793" fill="#000000"/>
<rect x="48.1034" y="21.9656" width="3.2069" height="3.13793" fill="#000000"/>
<rect x="60.931" y="21.9656" width="3.2069" height="3.13793" fill="#000000"/>
<rect x="64.1379" y="21.9656" width="3.2069" height="3.13793" fill="#000000"/>
<rect y="25.1035" width="3.2069" height="3.13793" fill="#000000"/>
<rect x="3.20691" y="25.1035" width="3.2069" height="3.13793" fill="#000000"/>
<rect x="16.0344" y="25.1035" width="3.2069" height="3.13793" fill="#000000"/>
<rect x="19.2413" y="25.1035" width="3.2069" height="3.13793" fill="#000000"/>
<rect x="22.4482" y="25.1035" width="3.2069" height="3.13793" fill="#000000"/>
<rect x="28.8621" y="25.1035" width="3.2069" height="3.13793" fill="#000000"/>
<rect x="32.069" y="25.1035" width="3.2069" height="3.13793" fill="#000000"/>
<rect x="38.4828" y="25.1035" width="3.2069" height="3.13793" fill="#000000"/>
<rect x="41.6897" y="25.1035" width="3.2069" height="3.13793" fill="#000000"/>
<rect x="44.8966" y="25.1035" width="3.2069" height="3.13793" fill="#000000"/>
<rect x="48.1034" y="25.1035" width="3.2069" height="3.13793" fill="#000000"/>
<rect x="51.3103" y="25.1035" width="3.2069" height="3.13793" fill="#000000"/>
<rect x="54.5172" y="25.1035" width="3.2069" height="3.13793" fill="#000000"/>
<rect x="57.7241" y="25.1035" width="3.2069" height="3.13793" fill="#000000"/>
<rect x="60.931" y="25.1035" width="3.2069" height="3.13793" fill="#000000"/>
<rect x="76.9656" y="25.1035" width="3.2069" height="3.13793" fill="#000000"/>
<rect x="80.1724" y="25.1035" width="3.2069" height="3.13793" fill="#000000"/>
<rect y="28.2413" width="3.2069" height="3.13793" fill="#000000"/>
<rect x="3.20691" y="28.2413" width="3.2069" height="3.13793" fill="#000000"/>
<rect x="9.62073" y="28.2413" width="3.2069" height="3.13793" fill="#000000"/>
<rect x="12.8276" y="28.2413" width="3.2069" height="3.13793" fill="#000000"/>
<rect x="16.0344" y="28.2413" width="3.2069" height="3.13793" fill="#000000"/>
<rect x="22.4482" y="28.2413" width="3.2069" height="3.13793" fill="#000000"/>
<rect x="25.6552" y="28.2413" width="3.2069" height="3.13793" fill="#000000"/>
<rect x="32.069" y="28.2413" width="3.2069" height="3.13793" fill="#000000"/>
<rect x="44.8966" y="28.2413" width="3.2069" height="3.13793" fill="#000000"/>
<rect x="48.1034" y="28.2413" width="3.2069" height="3.13793" fill="#000000"/>
<rect x="54.5172" y="28.2413" width="3.2069" height="3.13793" fill="#000000"/>
<rect x="57.7241" y="28.2413" width="3.2069" height="3.13793" fill="#000000"/>
<rect x="60.931" y="28.2413" width="3.2069" height="3.13793" fill="#000000"/>
<rect x="64.1379" y="28.2413" width="3.2069" height="3.13793" fill="#000000"/>
<rect x="73.7587" y="28.2413" width="3.2069" height="3.13793" fill="#000000"/>
<rect x="76.9656" y="28.2413" width="3.2069" height="3.13793" fill="#000000"/>
<rect x="83.3793" y="28.2413" width="3.2069" height="3.13793" fill="#000000"/>
<rect x="86.5862" y="28.2413" width="3.2069" height="3.13793" fill="#000000"/>
<rect x="9.62073" y="31.3793" width="3.2069" height="3.13793" fill="#000000"/>
<rect x="12.8276" y="31.3793" width="3.2069" height="3.13793" fill="#000000"/>
<rect x="19.2413" y="31.3793" width="3.2069" height="3.13793" fill="#000000"/>
<rect x="28.8621" y="31.3793" width="3.2069" height="3.13793" fill="#000000"/>
<rect x="35.2759" y="31.3793" width="3.2069" height="3.13793" fill="#000000"/>
<rect x="38.4828" y="31.3793" width="3.2069" height="3.13793" fill="#000000"/>
<rect x="48.1034" y="31.3793" width="3.2069" height="3.13793" fill="#000000"/>
<rect x="51.3103" y="31.3793" width="3.2069" height="3.13793" fill="#000000"/>
<rect x="54.5172" y="31.3793" width="3.2069" height="3.13793" fill="#000000"/>
<rect x="70.5518" y="31.3793" width="3.2069" height="3.13793" fill="#000000"/>
<rect y="34.5172" width="3.2069" height="3.13793" fill="#000000"/>
<rect x="16.0344" y="34.5172" width="3.2069" height="3.13793" fill="#000000"/>
<rect x="32.069" y="34.5172" width="3.2069" height="3.13793" fill="#000000"/>
<rect x="35.2759" y="34.5172" width="3.2069" height="3.13793" fill="#000000"/>
<rect x="44.8966" y="34.5172" width="3.2069" height="3.13793" fill="#000000"/>
<rect x="48.1034" y="34.5172" width="3.2069" height="3.13793" fill="#000000"/>
<rect x="51.3103" y="34.5172" width="3.2069" height="3.13793" fill="#000000"/>
<rect x="60.931" y="34.5172" width="3.2069" height="3.13793" fill="#000000"/>
<rect x="64.1379" y="34.5172" width="3.2069" height="3.13793" fill="#000000"/>
<rect x="73.7587" y="34.5172" width="3.2069" height="3.13793" fill="#000000"/>
<rect x="80.1724" y="34.5172" width="3.2069" height="3.13793" fill="#000000"/>
<rect y="37.6552" width="3.2069" height="3.13793" fill="#000000"/>
<rect x="9.62073" y="37.6552" width="3.2069" height="3.13793" fill="#000000"/>
<rect x="16.0344" y="37.6552" width="3.2069" height="3.13793" fill="#000000"/>
<rect x="19.2413" y="37.6552" width="3.2069" height="3.13793" fill="#000000"/>
<rect x="25.6552" y="37.6552" width="3.2069" height="3.13793" fill="#000000"/>
<rect x="28.8621" y="37.6552" width="3.2069" height="3.13793" fill="#000000"/>
<rect x="32.069" y="37.6552" width="3.2069" height="3.13793" fill="#000000"/>
<rect x="48.1034" y="37.6552" width="3.2069" height="3.13793" fill="#000000"/>
<rect x="51.3103" y="37.6552" width="3.2069" height="3.13793" fill="#000000"/>
<rect x="64.1379" y="37.6552" width="3.2069" height="3.13793" fill="#000000"/>
<rect x="70.5518" y="37.6552" width="3.2069" height="3.13793" fill="#000000"/>
<rect x="73.7587" y="37.6552" width="3.2069" height="3.13793" fill="#000000"/>
<rect x="89.7931" y="37.6552" width="3.2069" height="3.13793" fill="#000000"/>
<rect x="16.0344" y="40.7931" width="3.2069" height="3.13793" fill="#000000"/>
<rect x="32.069" y="40.7931" width="3.2069" height="3.13793" fill="#000000"/>
<rect x="38.4828" y="40.7931" width="3.2069" height="3.13793" fill="#000000"/>
<rect x="41.6897" y="40.7931" width="3.2069" height="3.13793" fill="#000000"/>
<rect x="48.1034" y="40.7931" width="3.2069" height="3.13793" fill="#000000"/>
<rect x="51.3103" y="40.7931" width="3.2069" height="3.13793" fill="#000000"/>
<rect x="54.5172" y="40.7931" width="3.2069" height="3.13793" fill="#000000"/>
<rect x="57.7241" y="40.7931" width="3.2069" height="3.13793" fill="#000000"/>
<rect x="60.931" y="40.7931" width="3.2069" height="3.13793" fill="#000000"/>
<rect x="64.1379" y="40.7931" width="3.2069" height="3.13793" fill="#000000"/>
<rect x="70.5518" y="40.7931" width="3.2069" height="3.13793" fill="#000000"/>
<rect x="76.9656" y="40.7931" width="3.2069" height="3.13793" fill="#000000"/>
<rect x="86.5862" y="40.7931" width="3.2069" height="3.13793" fill="#000000"/>
<rect x="89.7931" y="40.7931" width="3.2069" height="3.13793" fill="#000000"/>
<rect x="3.20691" y="43.931" width="3.2069" height="3.13793" fill="#000000"/>
<rect x="9.62073" y="43.931" width="3.2069" height="3.13793" fill="#000000"/>
<rect x="16.0344" y="43.931" width="3.2069" height="3.13793" fill="#000000"/>
<rect x="19.2413" y="43.931" width="3.2069" height="3.13793" fill="#000000"/>
<rect x="22.4482" y="43.931" width="3.2069" height="3.13793" fill="#000000"/>
<rect x="32.069" y="43.931" width="3.2069" height="3.13793" fill="#000000"/>
<rect x="44.8966" y="43.931" width="3.2069" height="3.13793" fill="#000000"/>
<rect x="48.1034" y="43.931" width="3.2069" height="3.13793" fill="#000000"/>
<rect x="57.7241" y="43.931" width="3.2069" height="3.13793" fill="#000000"/>
<rect x="64.1379" y="43.931" width="3.2069" height="3.13793" fill="#000000"/>
<rect x="67.3448" y="43.931" width="3.2069" height="3.13793" fill="#000000"/>
<rect x="70.5518" y="43.931" width="3.2069" height="3.13793" fill="#000000"/>
<rect x="73.7587" y="43.931" width="3.2069" height="3.13793" fill="#000000"/>
<rect x="80.1724" y="43.931" width="3.2069" height="3.13793" fill="#000000"/>
<rect x="83.3793" y="43.931" width="3.2069" height="3.13793" fill="#000000"/>
<rect y="47.069" width="3.2069" height="3.13793" fill="#000000"/>
<rect x="9.62073" y="47.069" width="3.2069" height="3.13793" fill="#000000"/>
<rect x="22.4482" y="47.069" width="3.2069" height="3.13793" fill="#000000"/>
<rect x="28.8621" y="47.069" width="3.2069" height="3.13793" fill="#000000"/>
<rect x="38.4828" y="47.069" width="3.2069" height="3.13793" fill="#000000"/>
<rect x="48.1034" y="47.069" width="3.2069" height="3.13793" fill="#000000"/>
<rect x="64.1379" y="47.069" width="3.2069" height="3.13793" fill="#000000"/>
<rect x="67.3448" y="47.069" width="3.2069" height="3.13793" fill="#000000"/>
<rect x="70.5518" y="47.069" width="3.2069" height="3.13793" fill="#000000"/>
<rect x="73.7587" y="47.069" width="3.2069" height="3.13793" fill="#000000"/>
<rect x="76.9656" y="47.069" width="3.2069" height="3.13793" fill="#000000"/>
<rect x="83.3793" y="47.069" width="3.2069" height="3.13793" fill="#000000"/>
<rect x="89.7931" y="47.069" width="3.2069" height="3.13793" fill="#000000"/>
<rect x="3.20691" y="50.2069" width="3.2069" height="3.13793" fill="#000000"/>
<rect x="9.62073" y="50.2069" width="3.2069" height="3.13793" fill="#000000"/>
<rect x="12.8276" y="50.2069" width="3.2069" height="3.13793" fill="#000000"/>
<rect x="19.2413" y="50.2069" width="3.2069" height="3.13793" fill="#000000"/>
<rect x="28.8621" y="50.2069" width="3.2069" height="3.13793" fill="#000000"/>
<rect x="38.4828" y="50.2069" width="3.2069" height="3.13793" fill="#000000"/>
<rect x="41.6897" y="50.2069" width="3.2069" height="3.13793" fill="#000000"/>
<rect x="54.5172" y="50.2069" width="3.2069" height="3.13793" fill="#000000"/>
<rect x="60.931" y="50.2069" width="3.2069" height="3.13793" fill="#000000"/>
<rect x="73.7587" y="50.2069" width="3.2069" height="3.13793" fill="#000000"/>
<rect x="80.1724" y="50.2069" width="3.2069" height="3.13793" fill="#000000"/>
<rect x="83.3793" y="50.2069" width="3.2069" height="3.13793" fill="#000000"/>
<rect y="53.3448" width="3.2069" height="3.13793" fill="#000000"/>
<rect x="3.20691" y="53.3448" width="3.2069" height="3.13793" fill="#000000"/>
<rect x="12.8276" y="53.3448" width="3.2069" height="3.13793" fill="#000000"/>
<rect x="25.6552" y="53.3448" width="3.2069" height="3.13793" fill="#000000"/>
<rect x="28.8621" y="53.3448" width="3.2069" height="3.13793" fill="#000000"/>
<rect x="41.6897" y="53.3448" width="3.2069" height="3.13793" fill="#000000"/>
<rect x="48.1034" y="53.3448" width="3.2069" height="3.13793" fill="#000000"/>
<rect x="51.3103" y="53.3448" width="3.2069" height="3.13793" fill="#000000"/>
<rect x="54.5172" y="53.3448" width="3.2069" height="3.13793" fill="#000000"/>
<rect x="57.7241" y="53.3448" width="3.2069" height="3.13793" fill="#000000"/>
<rect x="60.931" y="53.3448" width="3.2069" height="3.13793" fill="#000000"/>
<rect x="64.1379" y="53.3448" width="3.2069" height="3.13793" fill="#000000"/>
<rect x="70.5518" y="53.3448" width="3.2069" height="3.13793" fill="#000000"/>
<rect x="73.7587" y="53.3448" width="3.2069" height="3.13793" fill="#000000"/>
<rect x="76.9656" y="53.3448" width="3.2069" height="3.13793" fill="#000000"/>
<rect x="83.3793" y="53.3448" width="3.2069" height="3.13793" fill="#000000"/>
<rect x="86.5862" y="53.3448" width="3.2069" height="3.13793" fill="#000000"/>
<rect x="89.7931" y="53.3448" width="3.2069" height="3.13793" fill="#000000"/>
<rect y="56.4828" width="3.2069" height="3.13793" fill="#000000"/>
<rect x="3.20691" y="56.4828" width="3.2069" height="3.13793" fill="#000000"/>
<rect x="6.41382" y="56.4828" width="3.2069" height="3.13793" fill="#000000"/>
<rect x="19.2413" y="56.4828" width="3.2069" height="3.13793" fill="#000000"/>
<rect x="22.4482" y="56.4828" width="3.2069" height="3.13793" fill="#000000"/>
<rect x="25.6552" y="56.4828" width="3.2069" height="3.13793" fill="#000000"/>
<rect x="38.4828" y="56.4828" width="3.2069" height="3.13793" fill="#000000"/>
<rect x="48.1034" y="56.4828" width="3.2069" height="3.13793" fill="#000000"/>
<rect x="60.931" y="56.4828" width="3.2069" height="3.13793" fill="#000000"/>
<rect x="64.1379" y="56.4828" width="3.2069" height="3.13793" fill="#000000"/>
<rect x="80.1724" y="56.4828" width="3.2069" height="3.13793" fill="#000000"/>
<rect x="89.7931" y="56.4828" width="3.2069" height="3.13793" fill="#000000"/>
<rect y="59.6207" width="3.2069" height="3.13793" fill="#000000"/>
<rect x="6.41382" y="59.6207" width="3.2069" height="3.13793" fill="#000000"/>
<rect x="9.62073" y="59.6207" width="3.2069" height="3.13793" fill="#000000"/>
<rect x="22.4482" y="59.6207" width="3.2069" height="3.13793" fill="#000000"/>
<rect x="25.6552" y="59.6207" width="3.2069" height="3.13793" fill="#000000"/>
<rect x="35.2759" y="59.6207" width="3.2069" height="3.13793" fill="#000000"/>
<rect x="44.8966" y="59.6207" width="3.2069" height="3.13793" fill="#000000"/>
<rect x="57.7241" y="59.6207" width="3.2069" height="3.13793" fill="#000000"/>
<rect x="64.1379" y="59.6207" width="3.2069" height="3.13793" fill="#000000"/>
<rect x="70.5518" y="59.6207" width="3.2069" height="3.13793" fill="#000000"/>
<rect x="73.7587" y="59.6207" width="3.2069" height="3.13793" fill="#000000"/>
<rect x="76.9656" y="59.6207" width="3.2069" height="3.13793" fill="#000000"/>
<rect y="62.7587" width="3.2069" height="3.13793" fill="#000000"/>
<rect x="6.41382" y="62.7587" width="3.2069" height="3.13793" fill="#000000"/>
<rect x="12.8276" y="62.7587" width="3.2069" height="3.13793" fill="#000000"/>
<rect x="16.0344" y="62.7587" width="3.2069" height="3.13793" fill="#000000"/>
<rect x="19.2413" y="62.7587" width="3.2069" height="3.13793" fill="#000000"/>
<rect x="22.4482" y="62.7587" width="3.2069" height="3.13793" fill="#000000"/>
<rect x="25.6552" y="62.7587" width="3.2069" height="3.13793" fill="#000000"/>
<rect x="35.2759" y="62.7587" width="3.2069" height="3.13793" fill="#000000"/>
<rect x="54.5172" y="62.7587" width="3.2069" height="3.13793" fill="#000000"/>
<rect x="57.7241" y="62.7587" width="3.2069" height="3.13793" fill="#000000"/>
<rect x="64.1379" y="62.7587" width="3.2069" height="3.13793" fill="#000000"/>
<rect x="67.3448" y="62.7587" width="3.2069" height="3.13793" fill="#000000"/>
<rect x="70.5518" y="62.7587" width="3.2069" height="3.13793" fill="#000000"/>
<rect x="73.7587" y="62.7587" width="3.2069" height="3.13793" fill="#000000"/>
<rect x="76.9656" y="62.7587" width="3.2069" height="3.13793" fill="#000000"/>
<rect x="83.3793" y="62.7587" width="3.2069" height="3.13793" fill="#000000"/>
<rect x="86.5862" y="62.7587" width="3.2069" height="3.13793" fill="#000000"/>
<rect x="89.7931" y="62.7587" width="3.2069" height="3.13793" fill="#000000"/>
<rect x="25.6552" y="65.8965" width="3.2069" height="3.13793" fill="#000000"/>
<rect x="28.8621" y="65.8965" width="3.2069" height="3.13793" fill="#000000"/>
<rect x="32.069" y="65.8965" width="3.2069" height="3.13793" fill="#000000"/>
<rect x="38.4828" y="65.8965" width="3.2069" height="3.13793" fill="#000000"/>
<rect x="41.6897" y="65.8965" width="3.2069" height="3.13793" fill="#000000"/>
<rect x="44.8966" y="65.8965" width="3.2069" height="3.13793" fill="#000000"/>
<rect x="48.1034" y="65.8965" width="3.2069" height="3.13793" fill="#000000"/>
<rect x="54.5172" y="65.8965" width="3.2069" height="3.13793" fill="#000000"/>
<rect x="57.7241" y="65.8965" width="3.2069" height="3.13793" fill="#000000"/>
<rect x="64.1379" y="65.8965" width="3.2069" height="3.13793" fill="#000000"/>
<rect x="76.9656" y="65.8965" width="3.2069" height="3.13793" fill="#000000"/>
<rect x="80.1724" y="65.8965" width="3.2069" height="3.13793" fill="#000000"/>
<rect y="69.0344" width="3.2069" height="3.13793" fill="#000000"/>
<rect x="3.20691" y="69.0344" width="3.2069" height="3.13793" fill="#000000"/>
<rect x="6.41382" y="69.0344" width="3.2069" height="3.13793" fill="#000000"/>
<rect x="9.62073" y="69.0344" width="3.2069" height="3.13793" fill="#000000"/>
<rect x="12.8276" y="69.0344" width="3.2069" height="3.13793" fill="#000000"/>
<rect x="16.0344" y="69.0344" width="3.2069" height="3.13793" fill="#000000"/>
<rect x="19.2413" y="69.0344" width="3.2069" height="3.13793" fill="#000000"/>
<rect x="25.6552" y="69.0344" width="3.2069" height="3.13793" fill="#000000"/>
<rect x="41.6897" y="69.0344" width="3.2069" height="3.13793" fill="#000000"/>
<rect x="44.8966" y="69.0344" width="3.2069" height="3.13793" fill="#000000"/>
<rect x="48.1034" y="69.0344" width="3.2069" height="3.13793" fill="#000000"/>
<rect x="54.5172" y="69.0344" width="3.2069" height="3.13793" fill="#000000"/>
<rect x="60.931" y="69.0344" width="3.2069" height="3.13793" fill="#000000"/>
<rect x="64.1379" y="69.0344" width="3.2069" height="3.13793" fill="#000000"/>
<rect x="70.5518" y="69.0344" width="3.2069" height="3.13793" fill="#000000"/>
<rect x="76.9656" y="69.0344" width="3.2069" height="3.13793" fill="#000000"/>
<rect x="80.1724" y="69.0344" width="3.2069" height="3.13793" fill="#000000"/>
<rect x="83.3793" y="69.0344" width="3.2069" height="3.13793" fill="#000000"/>
<rect y="72.1724" width="3.2069" height="3.13793" fill="#000000"/>
<rect x="19.2413" y="72.1724" width="3.2069" height="3.13793" fill="#000000"/>
<rect x="25.6552" y="72.1724" width="3.2069" height="3.13793" fill="#000000"/>
<rect x="28.8621" y="72.1724" width="3.2069" height="3.13793" fill="#000000"/>
<rect x="38.4828" y="72.1724" width="3.2069" height="3.13793" fill="#000000"/>
<rect x="41.6897" y="72.1724" width="3.2069" height="3.13793" fill="#000000"/>
<rect x="51.3103" y="72.1724" width="3.2069" height="3.13793" fill="#000000"/>
<rect x="60.931" y="72.1724" width="3.2069" height="3.13793" fill="#000000"/>
<rect x="64.1379" y="72.1724" width="3.2069" height="3.13793" fill="#000000"/>
<rect x="76.9656" y="72.1724" width="3.2069" height="3.13793" fill="#000000"/>
<rect x="86.5862" y="72.1724" width="3.2069" height="3.13793" fill="#000000"/>
<rect y="75.3103" width="3.2069" height="3.13793" fill="#000000"/>
<rect x="6.41382" y="75.3103" width="3.2069" height="3.13793" fill="#000000"/>
<rect x="9.62073" y="75.3103" width="3.2069" height="3.13793" fill="#000000"/>
<rect x="12.8276" y="75.3103" width="3.2069" height="3.13793" fill="#000000"/>
<rect x="19.2413" y="75.3103" width="3.2069" height="3.13793" fill="#000000"/>
<rect x="28.8621" y="75.3103" width="3.2069" height="3.13793" fill="#000000"/>
<rect x="32.069" y="75.3103" width="3.2069" height="3.13793" fill="#000000"/>
<rect x="35.2759" y="75.3103" width="3.2069" height="3.13793" fill="#000000"/>
<rect x="38.4828" y="75.3103" width="3.2069" height="3.13793" fill="#000000"/>
<rect x="41.6897" y="75.3103" width="3.2069" height="3.13793" fill="#000000"/>
<rect x="48.1034" y="75.3103" width="3.2069" height="3.13793" fill="#000000"/>
<rect x="51.3103" y="75.3103" width="3.2069" height="3.13793" fill="#000000"/>
<rect x="60.931" y="75.3103" width="3.2069" height="3.13793" fill="#000000"/>
<rect x="64.1379" y="75.3103" width="3.2069" height="3.13793" fill="#000000"/>
<rect x="67.3448" y="75.3103" width="3.2069" height="3.13793" fill="#000000"/>
<rect x="70.5518" y="75.3103" width="3.2069" height="3.13793" fill="#000000"/>
<rect x="73.7587" y="75.3103" width="3.2069" height="3.13793" fill="#000000"/>
<rect x="76.9656" y="75.3103" width="3.2069" height="3.13793" fill="#000000"/>
<rect x="80.1724" y="75.3103" width="3.2069" height="3.13793" fill="#000000"/>
<rect x="86.5862" y="75.3103" width="3.2069" height="3.13793" fill="#000000"/>
<rect y="78.4484" width="3.2069" height="3.13793" fill="#000000"/>
<rect x="6.41382" y="78.4484" width="3.2069" height="3.13793" fill="#000000"/>
<rect x="9.62073" y="78.4484" width="3.2069" height="3.13793" fill="#000000"/>
<rect x="12.8276" y="78.4484" width="3.2069" height="3.13793" fill="#000000"/>
<rect x="19.2413" y="78.4484" width="3.2069" height="3.13793" fill="#000000"/>
<rect x="28.8621" y="78.4484" width="3.2069" height="3.13793" fill="#000000"/>
<rect x="48.1034" y="78.4484" width="3.2069" height="3.13793" fill="#000000"/>
<rect x="51.3103" y="78.4484" width="3.2069" height="3.13793" fill="#000000"/>
<rect x="57.7241" y="78.4484" width="3.2069" height="3.13793" fill="#000000"/>
<rect x="60.931" y="78.4484" width="3.2069" height="3.13793" fill="#000000"/>
<rect x="67.3448" y="78.4484" width="3.2069" height="3.13793" fill="#000000"/>
<rect x="73.7587" y="78.4484" width="3.2069" height="3.13793" fill="#000000"/>
<rect x="80.1724" y="78.4484" width="3.2069" height="3.13793" fill="#000000"/>
<rect x="83.3793" y="78.4484" width="3.2069" height="3.13793" fill="#000000"/>
<rect x="89.7931" y="78.4484" width="3.2069" height="3.13793" fill="#000000"/>
<rect y="81.5862" width="3.2069" height="3.13793" fill="#000000"/>
<rect x="6.41382" y="81.5862" width="3.2069" height="3.13793" fill="#000000"/>
<rect x="9.62073" y="81.5862" width="3.2069" height="3.13793" fill="#000000"/>
<rect x="12.8276" y="81.5862" width="3.2069" height="3.13793" fill="#000000"/>
<rect x="19.2413" y="81.5862" width="3.2069" height="3.13793" fill="#000000"/>
<rect x="35.2759" y="81.5862" width="3.2069" height="3.13793" fill="#000000"/>
<rect x="38.4828" y="81.5862" width="3.2069" height="3.13793" fill="#000000"/>
<rect x="48.1034" y="81.5862" width="3.2069" height="3.13793" fill="#000000"/>
<rect x="51.3103" y="81.5862" width="3.2069" height="3.13793" fill="#000000"/>
<rect x="54.5172" y="81.5862" width="3.2069" height="3.13793" fill="#000000"/>
<rect x="57.7241" y="81.5862" width="3.2069" height="3.13793" fill="#000000"/>
<rect x="60.931" y="81.5862" width="3.2069" height="3.13793" fill="#000000"/>
<rect x="67.3448" y="81.5862" width="3.2069" height="3.13793" fill="#000000"/>
<rect x="70.5518" y="81.5862" width="3.2069" height="3.13793" fill="#000000"/>
<rect x="73.7587" y="81.5862" width="3.2069" height="3.13793" fill="#000000"/>
<rect x="76.9656" y="81.5862" width="3.2069" height="3.13793" fill="#000000"/>
<rect x="80.1724" y="81.5862" width="3.2069" height="3.13793" fill="#000000"/>
<rect x="83.3793" y="81.5862" width="3.2069" height="3.13793" fill="#000000"/>
<rect x="86.5862" y="81.5862" width="3.2069" height="3.13793" fill="#000000"/>
<rect y="84.7241" width="3.2069" height="3.13793" fill="#000000"/>
<rect x="19.2413" y="84.7241" width="3.2069" height="3.13793" fill="#000000"/>
<rect x="25.6552" y="84.7241" width="3.2069" height="3.13793" fill="#000000"/>
<rect x="35.2759" y="84.7241" width="3.2069" height="3.13793" fill="#000000"/>
<rect x="48.1034" y="84.7241" width="3.2069" height="3.13793" fill="#000000"/>
<rect x="73.7587" y="84.7241" width="3.2069" height="3.13793" fill="#000000"/>
<rect x="80.1724" y="84.7241" width="3.2069" height="3.13793" fill="#000000"/>
<rect x="83.3793" y="84.7241" width="3.2069" height="3.13793" fill="#000000"/>
<rect x="89.7931" y="84.7241" width="3.2069" height="3.13793" fill="#000000"/>
<rect y="87.8621" width="3.2069" height="3.13793" fill="#000000"/>
<rect x="3.20691" y="87.8621" width="3.2069" height="3.13793" fill="#000000"/>
<rect x="6.41382" y="87.8621" width="3.2069" height="3.13793" fill="#000000"/>
<rect x="9.62073" y="87.8621" width="3.2069" height="3.13793" fill="#000000"/>
<rect x="12.8276" y="87.8621" width="3.2069" height="3.13793" fill="#000000"/>
<rect x="16.0344" y="87.8621" width="3.2069" height="3.13793" fill="#000000"/>
<rect x="19.2413" y="87.8621" width="3.2069" height="3.13793" fill="#000000"/>
<rect x="25.6552" y="87.8621" width="3.2069" height="3.13793" fill="#000000"/>
<rect x="35.2759" y="87.8621" width="3.2069" height="3.13793" fill="#000000"/>
<rect x="54.5172" y="87.8621" width="3.2069" height="3.13793" fill="#000000"/>
<rect x="60.931" y="87.8621" width="3.2069" height="3.13793" fill="#000000"/>
<rect x="70.5518" y="87.8621" width="3.2069" height="3.13793" fill="#000000"/>
<rect x="73.7587" y="87.8621" width="3.2069" height="3.13793" fill="#000000"/>
<rect x="76.9656" y="87.8621" width="3.2069" height="3.13793" fill="#000000"/>
<rect x="80.1724" y="87.8621" width="3.2069" height="3.13793" fill="#000000"/>
<rect x="83.3793" y="87.8621" width="3.2069" height="3.13793" fill="#000000"/>
</svg>
