<svg width="221" height="221" viewBox="0 0 221 221" fill="none" xmlns="http://www.w3.org/2000/svg">
<rect width="194" height="194" transform="translate(13 13)" fill="white"/>
<g filter="url(#filter0_dii_165_504)">
<path fill-rule="evenodd" clip-rule="evenodd" d="M203 110.5L175.907 175.907L110.5 203L45.0926 175.907L18 110.5L45.0926 45.0926L110.5 18L175.907 45.0926L203 110.5V110.5Z" fill="#606060" fill-opacity="0.05"/>
<path fill-rule="evenodd" clip-rule="evenodd" d="M203 110.5L175.907 175.907L110.5 203L45.0926 175.907L18 110.5L45.0926 45.0926L110.5 18L175.907 45.0926L203 110.5V110.5Z" fill="black"/>
<path fill-rule="evenodd" clip-rule="evenodd" d="M203 110.5L175.907 175.907L110.5 203L45.0926 175.907L18 110.5L45.0926 45.0926L110.5 18L175.907 45.0926L203 110.5V110.5Z" stroke="#2C2C2C" stroke-width="5"/>
</g>
<defs>
<filter id="filter0_dii_165_504" x="0.294006" y="0.293945" width="220.016" height="220.412" filterUnits="userSpaceOnUse" color-interpolation-filters="sRGB">
<feFlood flood-opacity="0" result="BackgroundImageFix"/>
<feColorMatrix in="SourceAlpha" type="matrix" values="0 0 0 0 0 0 0 0 0 0 0 0 0 0 0 0 0 0 127 0" result="hardAlpha"/>
<feOffset/>
<feGaussianBlur stdDeviation="7.5"/>
<feComposite in2="hardAlpha" operator="out"/>
<feColorMatrix type="matrix" values="0 0 0 0 0.34625 0 0 0 0 0.34625 0 0 0 0 0.34625 0 0 0 1 0"/>
<feBlend mode="normal" in2="BackgroundImageFix" result="effect1_dropShadow_165_504"/>
<feBlend mode="normal" in="SourceGraphic" in2="effect1_dropShadow_165_504" result="shape"/>
<feColorMatrix in="SourceAlpha" type="matrix" values="0 0 0 0 0 0 0 0 0 0 0 0 0 0 0 0 0 0 127 0" result="hardAlpha"/>
<feOffset dx="-15" dy="17"/>
<feGaussianBlur stdDeviation="3.5"/>
<feComposite in2="hardAlpha" operator="arithmetic" k2="-1" k3="1"/>
<feColorMatrix type="matrix" values="0 0 0 0 0 0 0 0 0 0 0 0 0 0 0 0 0 0 0.25 0"/>
<feBlend mode="normal" in2="shape" result="effect2_innerShadow_165_504"/>
<feColorMatrix in="SourceAlpha" type="matrix" values="0 0 0 0 0 0 0 0 0 0 0 0 0 0 0 0 0 0 127 0" result="hardAlpha"/>
<feOffset dx="6" dy="10"/>
<feGaussianBlur stdDeviation="4.5"/>
<feComposite in2="hardAlpha" operator="arithmetic" k2="-1" k3="1"/>
<feColorMatrix type="matrix" values="0 0 0 0 0 0 0 0 0 0 0 0 0 0 0 0 0 0 0.25 0"/>
<feBlend mode="normal" in2="effect2_innerShadow_165_504" result="effect3_innerShadow_165_504"/>
</filter>
</defs>
</svg>
