<svg width="230" height="230" viewBox="0 0 230 230" fill="none" xmlns="http://www.w3.org/2000/svg">
<g filter="url(#filter0_dii_11_41)">
<path fill-rule="evenodd" clip-rule="evenodd" d="M212 115L183.589 183.589L115 212L46.4106 183.589L18 115L46.4106 46.4106L115 18L183.589 46.4106L212 115V115Z" fill="#606060" fill-opacity="0.05"/>
<path fill-rule="evenodd" clip-rule="evenodd" d="M212 115L183.589 183.589L115 212L46.4106 183.589L18 115L46.4106 46.4106L115 18L183.589 46.4106L212 115V115Z" fill="black"/>
<path fill-rule="evenodd" clip-rule="evenodd" d="M212 115L183.589 183.589L115 212L46.4106 183.589L18 115L46.4106 46.4106L115 18L183.589 46.4106L212 115V115Z" stroke="#2C2C2C" stroke-width="5"/>
</g>
<defs>
<filter id="filter0_dii_11_41" x="0.29402" y="0.293945" width="229.016" height="229.412" filterUnits="userSpaceOnUse" color-interpolation-filters="sRGB">
<feFlood flood-opacity="0" result="BackgroundImageFix"/>
<feColorMatrix in="SourceAlpha" type="matrix" values="0 0 0 0 0 0 0 0 0 0 0 0 0 0 0 0 0 0 127 0" result="hardAlpha"/>
<feOffset/>
<feGaussianBlur stdDeviation="7.5"/>
<feComposite in2="hardAlpha" operator="out"/>
<feColorMatrix type="matrix" values="0 0 0 0 0.34625 0 0 0 0 0.34625 0 0 0 0 0.34625 0 0 0 1 0"/>
<feBlend mode="normal" in2="BackgroundImageFix" result="effect1_dropShadow_11_41"/>
<feBlend mode="normal" in="SourceGraphic" in2="effect1_dropShadow_11_41" result="shape"/>
<feColorMatrix in="SourceAlpha" type="matrix" values="0 0 0 0 0 0 0 0 0 0 0 0 0 0 0 0 0 0 127 0" result="hardAlpha"/>
<feOffset dx="-15" dy="17"/>
<feGaussianBlur stdDeviation="3.5"/>
<feComposite in2="hardAlpha" operator="arithmetic" k2="-1" k3="1"/>
<feColorMatrix type="matrix" values="0 0 0 0 0 0 0 0 0 0 0 0 0 0 0 0 0 0 0.25 0"/>
<feBlend mode="normal" in2="shape" result="effect2_innerShadow_11_41"/>
<feColorMatrix in="SourceAlpha" type="matrix" values="0 0 0 0 0 0 0 0 0 0 0 0 0 0 0 0 0 0 127 0" result="hardAlpha"/>
<feOffset dx="6" dy="10"/>
<feGaussianBlur stdDeviation="4.5"/>
<feComposite in2="hardAlpha" operator="arithmetic" k2="-1" k3="1"/>
<feColorMatrix type="matrix" values="0 0 0 0 0 0 0 0 0 0 0 0 0 0 0 0 0 0 0.25 0"/>
<feBlend mode="normal" in2="effect2_innerShadow_11_41" result="effect3_innerShadow_11_41"/>
</filter>
</defs>
</svg>
